<svg width="36" height="43" viewBox="0 0 36 43" fill="none" xmlns="http://www.w3.org/2000/svg">
<path d="M0.00635412 22.4563C0.00635412 19.6988 0.0292572 16.9413 0.00635412 14.1839C0.00635412 13.263 0.166676 12.9543 1.15151 13.3676C5.63203 15.2484 10.1279 17.091 14.6389 18.8953C15.4023 19.204 15.7484 19.5688 15.7357 20.4565C15.6771 23.9333 15.6899 27.4127 15.7357 30.8921C15.7357 31.767 15.4812 32.0782 14.5804 32.0706C10.1372 32.0349 5.69311 32.0349 1.24821 32.0706C0.324454 32.0706 -0.0241572 31.8155 0.00129064 30.8538C0.0420072 28.0555 0.00635412 25.2546 0.00635412 22.4563Z" fill="#2F8BBF"/>
<path d="M35.7899 33.3595C35.7899 36.1711 35.7719 38.9827 35.7899 41.7789C35.7899 42.6607 35.5873 42.9189 34.6821 42.5457C30.0804 40.6355 25.465 38.756 20.8359 36.9072C20.259 36.6746 20.0795 36.3346 20.0821 35.7544C20.0949 32.1403 20.1051 28.5236 20.0821 24.9094C20.0821 24.0506 20.4308 23.8231 21.2256 23.8282C25.6641 23.8512 30.1 23.8665 34.536 23.8282C35.6026 23.8282 35.818 24.2704 35.818 25.2033C35.7642 27.9255 35.7899 30.6476 35.7899 33.3595Z" fill="#4C51C3"/>
<path d="M28.0012 9.64349C28.0012 12.3641 27.9755 15.0873 28.0139 17.8181C28.0139 18.7659 27.909 19.1465 26.8239 18.6918C22.3145 16.7988 17.7794 14.9672 13.2393 13.1484C12.5509 12.8699 12.2822 12.5123 12.2898 11.751C12.3308 8.26403 12.3487 4.77704 12.2898 1.27728C12.2694 0.227356 12.6532 0 13.6181 0C18.0081 0.037467 22.3964 0.037467 26.7829 0C27.7273 0 28.0446 0.255451 28.0241 1.22363C27.9627 4.02344 27.9986 6.83347 28.0012 9.64349Z" fill="#12C8BB"/>
</svg>
