
<svg width="1920" height="1015" viewBox="0 0 1920 1015" fill="none" xmlns="http://www.w3.org/2000/svg">
<path d="M1920 0H0V1015H1920V0Z" fill="url(#paint0_linear_405_36096)"/>
<g style="mix-blend-mode:luminosity" opacity="0.3">
<mask id="mask0_405_36096" style="mask-type:alpha" maskUnits="userSpaceOnUse" x="0" y="4" width="1920" height="1011">
<rect y="4" width="1920" height="1011" fill="#D9D9D9"/>
</mask>
<g mask="url(#mask0_405_36096)">
<path d="M1933.08 -5H-7.00781V1015H1933.08V-5Z" fill="url(#paint1_radial_405_36096)"/>
<g opacity="0.55">
<path d="M1071.01 623.011C1072.29 623.011 1073.34 622.102 1073.34 620.98C1073.34 619.859 1072.29 618.949 1071.01 618.949C1069.72 618.949 1068.68 619.859 1068.68 620.98C1068.68 622.102 1069.72 623.011 1071.01 623.011Z" fill="#FFEEFF"/>
<path d="M977.079 626.394C978.365 626.394 979.408 625.485 979.408 624.363C979.408 623.241 978.365 622.332 977.079 622.332C975.793 622.332 974.75 623.241 974.75 624.363C974.75 625.485 975.793 626.394 977.079 626.394Z" fill="#FFEEFF"/>
<path d="M854.944 664.535C856.802 664.535 858.308 663.222 858.308 661.602C858.308 659.981 856.802 658.668 854.944 658.668C853.086 658.668 851.58 659.981 851.58 661.602C851.58 663.222 853.086 664.535 854.944 664.535Z" fill="#FFEEFF"/>
<path d="M854.684 691.84C856.828 691.84 858.566 690.325 858.566 688.455C858.566 686.586 856.828 685.07 854.684 685.07C852.54 685.07 850.803 686.586 850.803 688.455C850.803 690.325 852.54 691.84 854.684 691.84Z" fill="#FFEEFF"/>
<path d="M934.382 712.376C934.382 713.505 933.347 714.407 932.054 714.407C930.76 714.407 929.725 713.505 929.725 712.376C929.725 711.248 930.76 710.345 932.054 710.345C933.089 710.12 934.382 711.248 934.382 712.376Z" fill="#FFEEFF"/>
<path d="M1104.39 762.25C1105.67 762.25 1106.72 761.34 1106.72 760.219C1106.72 759.097 1105.67 758.188 1104.39 758.188C1103.1 758.188 1102.06 759.097 1102.06 760.219C1102.06 761.34 1103.1 762.25 1104.39 762.25Z" fill="#FFEEFF"/>
<path d="M1215.4 828.144C1216.68 828.144 1217.73 827.235 1217.73 826.113C1217.73 824.991 1216.68 824.082 1215.4 824.082C1214.11 824.082 1213.07 824.991 1213.07 826.113C1213.07 827.235 1214.11 828.144 1215.4 828.144Z" fill="#FFEEFF"/>
<path d="M1259.39 923.828C1260.67 923.828 1261.71 922.918 1261.71 921.797C1261.71 920.675 1260.67 919.766 1259.39 919.766C1258.1 919.766 1257.06 920.675 1257.06 921.797C1257.06 922.918 1258.1 923.828 1259.39 923.828Z" fill="#FFEEFF"/>
<path d="M1087.83 965.578C1089.11 965.578 1090.16 964.668 1090.16 963.547C1090.16 962.425 1089.11 961.516 1087.83 961.516C1086.54 961.516 1085.5 962.425 1085.5 963.547C1085.5 964.668 1086.54 965.578 1087.83 965.578Z" fill="#FFEEFF"/>
<path d="M857.014 968.285C858.301 968.285 859.343 967.375 859.343 966.254C859.343 965.132 858.301 964.223 857.014 964.223C855.728 964.223 854.686 965.132 854.686 966.254C854.686 967.375 855.728 968.285 857.014 968.285Z" fill="#FFEEFF"/>
<path d="M837.606 975.281C838.892 975.281 839.935 974.371 839.935 973.25C839.935 972.128 838.892 971.219 837.606 971.219C836.32 971.219 835.277 972.128 835.277 973.25C835.277 974.371 836.32 975.281 837.606 975.281Z" fill="#FFEEFF"/>
<path d="M870.21 948.199C871.496 948.199 872.539 947.289 872.539 946.168C872.539 945.046 871.496 944.137 870.21 944.137C868.924 944.137 867.881 945.046 867.881 946.168C867.881 947.289 868.924 948.199 870.21 948.199Z" fill="#FFEEFF"/>
<path d="M1035.04 818.44C1037.04 818.44 1038.66 817.025 1038.66 815.28C1038.66 813.536 1037.04 812.121 1035.04 812.121C1033.04 812.121 1031.42 813.536 1031.42 815.28C1031.42 817.025 1033.04 818.44 1035.04 818.44Z" fill="#FFEEFF"/>
<path d="M1154.07 853.871C1155.36 853.871 1156.4 852.961 1156.4 851.84C1156.4 850.718 1155.36 849.809 1154.07 849.809C1152.78 849.809 1151.74 850.718 1151.74 851.84C1151.74 852.961 1152.78 853.871 1154.07 853.871Z" fill="#FFEEFF"/>
<path d="M1381.26 855.451C1384.26 855.451 1386.7 853.329 1386.7 850.712C1386.7 848.094 1384.26 845.973 1381.26 845.973C1378.26 845.973 1375.83 848.094 1375.83 850.712C1375.83 853.329 1378.26 855.451 1381.26 855.451Z" fill="#FFEEFF"/>
<path d="M1602.5 831.078C1603.79 831.078 1604.83 830.168 1604.83 829.047C1604.83 827.925 1603.79 827.016 1602.5 827.016C1601.21 827.016 1600.17 827.925 1600.17 829.047C1600.17 830.168 1601.21 831.078 1602.5 831.078Z" fill="#FFEEFF"/>
<path d="M1773.54 668.597C1774.83 668.597 1775.87 667.688 1775.87 666.566C1775.87 665.444 1774.83 664.535 1773.54 664.535C1772.26 664.535 1771.21 665.444 1771.21 666.566C1771.21 667.688 1772.26 668.597 1773.54 668.597Z" fill="#FFEEFF"/>
<path d="M1697.21 629.328C1698.49 629.328 1699.54 628.418 1699.54 627.297C1699.54 626.175 1698.49 625.266 1697.21 625.266C1695.92 625.266 1694.88 626.175 1694.88 627.297C1694.88 628.418 1695.92 629.328 1697.21 629.328Z" fill="#FFEEFF"/>
<path d="M1700.57 554.633C1700.57 555.761 1699.54 556.664 1698.24 556.664C1696.95 556.664 1695.91 555.761 1695.91 554.633C1695.91 553.504 1696.95 552.602 1698.24 552.602C1699.54 552.602 1700.57 553.279 1700.57 554.633Z" fill="#FFEEFF"/>
<path d="M1586.72 572.01C1586.72 574.267 1584.65 576.298 1581.8 576.298C1579.21 576.298 1576.88 574.493 1576.88 572.01C1576.88 569.528 1578.95 567.723 1581.8 567.723C1584.39 567.723 1586.72 569.754 1586.72 572.01Z" fill="#FFEEFF"/>
<path d="M1581.8 597.737C1585.66 597.737 1588.79 595.009 1588.79 591.644C1588.79 588.279 1585.66 585.551 1581.8 585.551C1577.94 585.551 1574.81 588.279 1574.81 591.644C1574.81 595.009 1577.94 597.737 1581.8 597.737Z" fill="#FFEEFF"/>
<path d="M1497.44 588.707C1498.73 588.707 1499.77 587.797 1499.77 586.676C1499.77 585.554 1498.73 584.645 1497.44 584.645C1496.16 584.645 1495.12 585.554 1495.12 586.676C1495.12 587.797 1496.16 588.707 1497.44 588.707Z" fill="#FFEEFF"/>
<path d="M1434.82 493.25C1436.11 493.25 1437.15 492.34 1437.15 491.219C1437.15 490.097 1436.11 489.188 1434.82 489.188C1433.54 489.188 1432.5 490.097 1432.5 491.219C1432.5 492.34 1433.54 493.25 1434.82 493.25Z" fill="#FFEEFF"/>
<path d="M1334.68 409.753C1335.97 409.753 1337.01 408.844 1337.01 407.722C1337.01 406.601 1335.97 405.691 1334.68 405.691C1333.4 405.691 1332.36 406.601 1332.36 407.722C1332.36 408.844 1333.4 409.753 1334.68 409.753Z" fill="#FFEEFF"/>
<path d="M1224.97 376.804C1226.26 376.804 1227.3 375.895 1227.3 374.773C1227.3 373.652 1226.26 372.742 1224.97 372.742C1223.68 372.742 1222.64 373.652 1222.64 374.773C1222.64 375.895 1223.68 376.804 1224.97 376.804Z" fill="#FFEEFF"/>
<path d="M1173.99 348.597C1175.28 348.597 1176.32 347.688 1176.32 346.566C1176.32 345.444 1175.28 344.535 1173.99 344.535C1172.71 344.535 1171.67 345.444 1171.67 346.566C1171.67 347.688 1172.71 348.597 1173.99 348.597Z" fill="#FFEEFF"/>
<path d="M844.335 439.316C845.621 439.316 846.664 438.407 846.664 437.285C846.664 436.163 845.621 435.254 844.335 435.254C843.049 435.254 842.006 436.163 842.006 437.285C842.006 438.407 843.049 439.316 844.335 439.316Z" fill="#FFEEFF"/>
<path d="M716.247 406.14C717.533 406.14 718.576 405.231 718.576 404.109C718.576 402.987 717.533 402.078 716.247 402.078C714.961 402.078 713.918 402.987 713.918 404.109C713.918 405.231 714.961 406.14 716.247 406.14Z" fill="#FFEEFF"/>
<path d="M900.485 251.558C901.771 251.558 902.814 250.649 902.814 249.527C902.814 248.405 901.771 247.496 900.485 247.496C899.199 247.496 898.156 248.405 898.156 249.527C898.156 250.649 899.199 251.558 900.485 251.558Z" fill="#FFEEFF"/>
<path d="M1174.51 217.707C1175.8 217.707 1176.84 216.797 1176.84 215.676C1176.84 214.554 1175.8 213.645 1174.51 213.645C1173.23 213.645 1172.18 214.554 1172.18 215.676C1172.18 216.797 1173.23 217.707 1174.51 217.707Z" fill="#FFEEFF"/>
<path d="M1308.29 204.621C1309.58 204.621 1310.62 203.711 1310.62 202.59C1310.62 201.468 1309.58 200.559 1308.29 200.559C1307.01 200.559 1305.96 201.468 1305.96 202.59C1305.96 203.711 1307.01 204.621 1308.29 204.621Z" fill="#FFEEFF"/>
<path d="M1369.62 194.914C1370.9 194.914 1371.95 194.004 1371.95 192.883C1371.95 191.761 1370.9 190.852 1369.62 190.852C1368.33 190.852 1367.29 191.761 1367.29 192.883C1367.29 194.004 1368.33 194.914 1369.62 194.914Z" fill="#FFEEFF"/>
<path d="M1624.76 102.84C1624.76 103.968 1623.72 104.871 1622.43 104.871C1621.13 104.871 1620.1 103.968 1620.1 102.84C1620.1 101.711 1621.13 100.809 1622.43 100.809C1623.72 100.809 1624.76 101.711 1624.76 102.84Z" fill="#FFEEFF"/>
<path d="M1591.37 183.633C1591.37 184.761 1590.34 185.664 1589.05 185.664C1587.75 185.664 1586.72 184.761 1586.72 183.633C1586.72 182.504 1587.75 181.602 1589.05 181.602C1590.34 181.602 1591.37 182.504 1591.37 183.633Z" fill="#FFEEFF"/>
<path d="M1343.74 287.664C1345.03 287.664 1346.07 286.754 1346.07 285.633C1346.07 284.511 1345.03 283.602 1343.74 283.602C1342.45 283.602 1341.41 284.511 1341.41 285.633C1341.41 286.754 1342.45 287.664 1343.74 287.664Z" fill="#FFEEFF"/>
<path d="M946.026 372.066C947.312 372.066 948.355 371.157 948.355 370.035C948.355 368.913 947.312 368.004 946.026 368.004C944.74 368.004 943.697 368.913 943.697 370.035C943.697 371.157 944.74 372.066 946.026 372.066Z" fill="#FFEEFF"/>
<path d="M978.114 451.953C979.4 451.953 980.443 451.043 980.443 449.922C980.443 448.8 979.4 447.891 978.114 447.891C976.828 447.891 975.785 448.8 975.785 449.922C975.785 451.043 976.828 451.953 978.114 451.953Z" fill="#FFEEFF"/>
<path d="M915.753 499.796C915.753 502.73 913.165 504.986 909.801 504.986C906.437 504.986 903.85 502.73 903.85 499.796C903.85 496.862 906.437 494.605 909.801 494.605C913.165 494.605 915.753 496.862 915.753 499.796Z" fill="#FFEEFF"/>
<path d="M717.542 557.792C718.828 557.792 719.871 556.883 719.871 555.761C719.871 554.64 718.828 553.73 717.542 553.73C716.256 553.73 715.213 554.64 715.213 555.761C715.213 556.883 716.256 557.792 717.542 557.792Z" fill="#FFEEFF"/>
<path d="M505.1 574.941C506.386 574.941 507.429 574.032 507.429 572.91C507.429 571.788 506.386 570.879 505.1 570.879C503.814 570.879 502.771 571.788 502.771 572.91C502.771 574.032 503.814 574.941 505.1 574.941Z" fill="#FFEEFF"/>
<path d="M416.087 666.115C416.087 668.146 414.276 669.725 411.947 669.725C409.618 669.725 407.807 668.146 407.807 666.115C407.807 664.084 409.618 662.504 411.947 662.504C414.276 662.504 416.087 664.084 416.087 666.115Z" fill="#FFEEFF"/>
<path d="M407.806 706.733C410.378 706.733 412.464 704.915 412.464 702.671C412.464 700.428 410.378 698.609 407.806 698.609C405.234 698.609 403.148 700.428 403.148 702.671C403.148 704.915 405.234 706.733 407.806 706.733Z" fill="#FFEEFF"/>
<path d="M342.339 762.699C343.625 762.699 344.667 761.789 344.667 760.668C344.667 759.546 343.625 758.637 342.339 758.637C341.052 758.637 340.01 759.546 340.01 760.668C340.01 761.789 341.052 762.699 342.339 762.699Z" fill="#FFEEFF"/>
<path d="M297.315 862.898C298.601 862.898 299.644 861.989 299.644 860.867C299.644 859.745 298.601 858.836 297.315 858.836C296.029 858.836 294.986 859.745 294.986 860.867C294.986 861.989 296.029 862.898 297.315 862.898Z" fill="#FFEEFF"/>
<path d="M323.192 827.918C324.478 827.918 325.521 827.008 325.521 825.887C325.521 824.765 324.478 823.855 323.192 823.855C321.906 823.855 320.863 824.765 320.863 825.887C320.863 827.008 321.906 827.918 323.192 827.918Z" fill="#FFEEFF"/>
<path d="M309.219 845.746C310.506 845.746 311.548 844.836 311.548 843.715C311.548 842.593 310.506 841.684 309.219 841.684C307.933 841.684 306.891 842.593 306.891 843.715C306.891 844.836 307.933 845.746 309.219 845.746Z" fill="#FFEEFF"/>
<path d="M368.733 853.644C370.019 853.644 371.062 852.735 371.062 851.613C371.062 850.491 370.019 849.582 368.733 849.582C367.447 849.582 366.404 850.491 366.404 851.613C366.404 852.735 367.447 853.644 368.733 853.644Z" fill="#FFEEFF"/>
<path d="M344.669 803.996C345.955 803.996 346.998 803.086 346.998 801.965C346.998 800.843 345.955 799.934 344.669 799.934C343.382 799.934 342.34 800.843 342.34 801.965C342.34 803.086 343.382 803.996 344.669 803.996Z" fill="#FFEEFF"/>
<path d="M328.884 795.421C330.17 795.421 331.212 794.512 331.212 793.39C331.212 792.269 330.17 791.359 328.884 791.359C327.597 791.359 326.555 792.269 326.555 793.39C326.555 794.512 327.597 795.421 328.884 795.421Z" fill="#FFEEFF"/>
<path d="M579.882 974.605C581.168 974.605 582.21 973.696 582.21 972.574C582.21 971.452 581.168 970.543 579.882 970.543C578.595 970.543 577.553 971.452 577.553 972.574C577.553 973.696 578.595 974.605 579.882 974.605Z" fill="#FFEEFF"/>
<path d="M671.224 1010.71C673.225 1010.71 674.847 1009.29 674.847 1007.55C674.847 1005.81 673.225 1004.39 671.224 1004.39C669.223 1004.39 667.602 1005.81 667.602 1007.55C667.602 1009.29 669.223 1010.71 671.224 1010.71Z" fill="#FFEEFF"/>
<path d="M709.003 942.332C712.719 942.332 715.731 939.706 715.731 936.465C715.731 933.225 712.719 930.598 709.003 930.598C705.288 930.598 702.275 933.225 702.275 936.465C702.275 939.706 705.288 942.332 709.003 942.332Z" fill="#FFEEFF"/>
<path d="M696.064 885.011C696.064 886.14 695.029 887.042 693.735 887.042C692.441 887.042 691.406 886.14 691.406 885.011C691.406 883.883 692.441 882.98 693.735 882.98C695.029 882.98 696.064 883.883 696.064 885.011Z" fill="#FFEEFF"/>
<path d="M755.063 917.962C757.492 917.962 759.462 916.244 759.462 914.125C759.462 912.007 757.492 910.289 755.063 910.289C752.633 910.289 750.664 912.007 750.664 914.125C750.664 916.244 752.633 917.962 755.063 917.962Z" fill="#FFEEFF"/>
<path d="M906.954 1001.23C908.24 1001.23 909.283 1000.32 909.283 999.203C909.283 998.081 908.24 997.172 906.954 997.172C905.668 997.172 904.625 998.081 904.625 999.203C904.625 1000.32 905.668 1001.23 906.954 1001.23Z" fill="#FFEEFF"/>
<path d="M894.792 1015C896.078 1015 897.121 1014.09 897.121 1012.97C897.121 1011.85 896.078 1010.94 894.792 1010.94C893.506 1010.94 892.463 1011.85 892.463 1012.97C892.463 1014.09 893.506 1015 894.792 1015Z" fill="#FFEEFF"/>
<path d="M1140.87 991.754C1142.16 991.754 1143.2 990.844 1143.2 989.722C1143.2 988.601 1142.16 987.691 1140.87 987.691C1139.59 987.691 1138.54 988.601 1138.54 989.722C1138.54 990.844 1139.59 991.754 1140.87 991.754Z" fill="#FFEEFF"/>
<path d="M1097.4 985.21C1098.69 985.21 1099.73 984.301 1099.73 983.179C1099.73 982.058 1098.69 981.148 1097.4 981.148C1096.11 981.148 1095.07 982.058 1095.07 983.179C1095.07 984.301 1096.11 985.21 1097.4 985.21Z" fill="#FFEEFF"/>
<path d="M1103.09 1012.07C1104.38 1012.07 1105.42 1011.16 1105.42 1010.03C1105.42 1008.91 1104.38 1008 1103.09 1008C1101.81 1008 1100.77 1008.91 1100.77 1010.03C1100.77 1011.16 1101.81 1012.07 1103.09 1012.07Z" fill="#FFEEFF"/>
<path d="M1202.98 1015.68C1204.26 1015.68 1205.3 1014.77 1205.3 1013.64C1205.3 1012.52 1204.26 1011.61 1202.98 1011.61C1201.69 1011.61 1200.65 1012.52 1200.65 1013.64C1200.65 1014.77 1201.69 1015.68 1202.98 1015.68Z" fill="#FFEEFF"/>
<path d="M1551.78 983.855C1553.07 983.855 1554.11 982.946 1554.11 981.824C1554.11 980.702 1553.07 979.793 1551.78 979.793C1550.5 979.793 1549.46 980.702 1549.46 981.824C1549.46 982.946 1550.5 983.855 1551.78 983.855Z" fill="#FFEEFF"/>
<path d="M1347.1 655.281C1348.39 655.281 1349.43 654.372 1349.43 653.25C1349.43 652.128 1348.39 651.219 1347.1 651.219C1345.82 651.219 1344.78 652.128 1344.78 653.25C1344.78 654.372 1345.82 655.281 1347.1 655.281Z" fill="#FFEEFF"/>
<path d="M1290.7 706.058C1291.98 706.058 1293.02 705.149 1293.02 704.027C1293.02 702.905 1291.98 701.996 1290.7 701.996C1289.41 701.996 1288.37 702.905 1288.37 704.027C1288.37 705.149 1289.41 706.058 1290.7 706.058Z" fill="#FFEEFF"/>
<path d="M1269.22 576.523C1270.51 576.523 1271.55 575.614 1271.55 574.492C1271.55 573.37 1270.51 572.461 1269.22 572.461C1267.93 572.461 1266.89 573.37 1266.89 574.492C1266.89 575.614 1267.93 576.523 1269.22 576.523Z" fill="#FFEEFF"/>
<path d="M1278.53 546.281C1279.82 546.281 1280.86 545.371 1280.86 544.25C1280.86 543.128 1279.82 542.219 1278.53 542.219C1277.25 542.219 1276.21 543.128 1276.21 544.25C1276.21 545.371 1277.25 546.281 1278.53 546.281Z" fill="#FFEEFF"/>
<path d="M1229.89 539.285C1231.17 539.285 1232.22 538.375 1232.22 537.254C1232.22 536.132 1231.17 535.223 1229.89 535.223C1228.6 535.223 1227.56 536.132 1227.56 537.254C1227.56 538.375 1228.6 539.285 1229.89 539.285Z" fill="#FFEEFF"/>
<path d="M1498.48 322.644C1502.91 322.644 1506.5 319.512 1506.5 315.648C1506.5 311.784 1502.91 308.652 1498.48 308.652C1494.05 308.652 1490.46 311.784 1490.46 315.648C1490.46 319.512 1494.05 322.644 1498.48 322.644Z" fill="#FFEEFF"/>
<path d="M1490.46 264.195C1492.03 264.195 1493.3 263.084 1493.3 261.713C1493.3 260.342 1492.03 259.23 1490.46 259.23C1488.89 259.23 1487.61 260.342 1487.61 261.713C1487.61 263.084 1488.89 264.195 1490.46 264.195Z" fill="#FFEEFF"/>
<path d="M1521.25 265.323C1521.25 266.451 1520.22 267.58 1518.66 267.58C1517.37 267.58 1516.08 266.677 1516.08 265.323C1516.08 264.195 1517.11 263.066 1518.66 263.066C1520.22 263.066 1521.25 263.969 1521.25 265.323Z" fill="#FFEEFF"/>
<path d="M1583.09 248.625C1584.67 248.625 1585.94 247.514 1585.94 246.143C1585.94 244.772 1584.67 243.66 1583.09 243.66C1581.52 243.66 1580.25 244.772 1580.25 246.143C1580.25 247.514 1581.52 248.625 1583.09 248.625Z" fill="#FFEEFF"/>
<path d="M1578.7 233.277C1579.98 233.277 1581.02 232.368 1581.02 231.246C1581.02 230.124 1579.98 229.215 1578.7 229.215C1577.41 229.215 1576.37 230.124 1576.37 231.246C1576.37 232.368 1577.41 233.277 1578.7 233.277Z" fill="#FFEEFF"/>
<path d="M1558.51 224.929C1559.8 224.929 1560.84 224.02 1560.84 222.898C1560.84 221.777 1559.8 220.867 1558.51 220.867C1557.23 220.867 1556.18 221.777 1556.18 222.898C1556.18 224.02 1557.23 224.929 1558.51 224.929Z" fill="#FFEEFF"/>
<path d="M1556.18 235.085C1557.47 235.085 1558.51 234.176 1558.51 233.054C1558.51 231.933 1557.47 231.023 1556.18 231.023C1554.9 231.023 1553.86 231.933 1553.86 233.054C1553.86 234.176 1554.9 235.085 1556.18 235.085Z" fill="#FFEEFF"/>
<path d="M1595.77 360.332C1597.06 360.332 1598.1 359.422 1598.1 358.301C1598.1 357.179 1597.06 356.27 1595.77 356.27C1594.49 356.27 1593.45 357.179 1593.45 358.301C1593.45 359.422 1594.49 360.332 1595.77 360.332Z" fill="#FFEEFF"/>
<path d="M1643.13 424.871C1644.41 424.871 1645.46 423.961 1645.46 422.84C1645.46 421.718 1644.41 420.809 1643.13 420.809C1641.84 420.809 1640.8 421.718 1640.8 422.84C1640.8 423.961 1641.84 424.871 1643.13 424.871Z" fill="#FFEEFF"/>
<path d="M1781.82 419.003C1783.11 419.003 1784.15 418.094 1784.15 416.972C1784.15 415.851 1783.11 414.941 1781.82 414.941C1780.53 414.941 1779.49 415.851 1779.49 416.972C1779.49 418.094 1780.53 419.003 1781.82 419.003Z" fill="#FFEEFF"/>
<path d="M907.212 279.316C907.212 280.445 906.177 281.347 904.884 281.347C903.59 281.347 902.555 280.445 902.555 279.316C902.555 278.188 903.59 277.285 904.884 277.285C906.177 277.285 907.212 278.188 907.212 279.316Z" fill="#FFEEFF"/>
<path d="M715.213 205.749C719.072 205.749 722.2 203.021 722.2 199.656C722.2 196.29 719.072 193.562 715.213 193.562C711.354 193.562 708.227 196.29 708.227 199.656C708.227 203.021 711.354 205.749 715.213 205.749Z" fill="#FFEEFF"/>
<path d="M659.32 166.705C661.321 166.705 662.943 165.291 662.943 163.546C662.943 161.801 661.321 160.387 659.32 160.387C657.319 160.387 655.697 161.801 655.697 163.546C655.697 165.291 657.319 166.705 659.32 166.705Z" fill="#FFEEFF"/>
<path d="M581.692 185.886C582.978 185.886 584.021 184.977 584.021 183.855C584.021 182.734 582.978 181.824 581.692 181.824C580.406 181.824 579.363 182.734 579.363 183.855C579.363 184.977 580.406 185.886 581.692 185.886Z" fill="#FFEEFF"/>
<path d="M546.761 130.601C548.047 130.601 549.089 129.692 549.089 128.57C549.089 127.448 548.047 126.539 546.761 126.539C545.474 126.539 544.432 127.448 544.432 128.57C544.432 129.692 545.474 130.601 546.761 130.601Z" fill="#FFEEFF"/>
<path d="M602.393 97.6519C603.679 97.6519 604.722 96.7426 604.722 95.6209C604.722 94.4992 603.679 93.5898 602.393 93.5898C601.107 93.5898 600.064 94.4992 600.064 95.6209C600.064 96.7426 601.107 97.6519 602.393 97.6519Z" fill="#FFEEFF"/>
<path d="M498.372 94.0386C499.658 94.0386 500.701 93.1293 500.701 92.0076C500.701 90.8859 499.658 89.9766 498.372 89.9766C497.086 89.9766 496.043 90.8859 496.043 92.0076C496.043 93.1293 497.086 94.0386 498.372 94.0386Z" fill="#FFEEFF"/>
<path d="M488.022 46.648C489.308 46.648 490.351 45.7387 490.351 44.617C490.351 43.4953 489.308 42.5859 488.022 42.5859C486.736 42.5859 485.693 43.4953 485.693 44.617C485.693 45.7387 486.736 46.648 488.022 46.648Z" fill="#FFEEFF"/>
<path d="M484.139 103.293C485.426 103.293 486.468 102.383 486.468 101.261C486.468 100.14 485.426 99.2305 484.139 99.2305C482.853 99.2305 481.811 100.14 481.811 101.261C481.811 102.383 482.853 103.293 484.139 103.293Z" fill="#FFEEFF"/>
<path d="M566.167 299.175C567.453 299.175 568.496 298.266 568.496 297.144C568.496 296.023 567.453 295.113 566.167 295.113C564.881 295.113 563.838 296.023 563.838 297.144C563.838 298.266 564.881 299.175 566.167 299.175Z" fill="#FFEEFF"/>
<path d="M516.745 265.777C518.031 265.777 519.074 264.868 519.074 263.746C519.074 262.624 518.031 261.715 516.745 261.715C515.459 261.715 514.416 262.624 514.416 263.746C514.416 264.868 515.459 265.777 516.745 265.777Z" fill="#FFEEFF"/>
<path d="M409.358 210.488C410.644 210.488 411.687 209.579 411.687 208.457C411.687 207.335 410.644 206.426 409.358 206.426C408.072 206.426 407.029 207.335 407.029 208.457C407.029 209.579 408.072 210.488 409.358 210.488Z" fill="#FFEEFF"/>
<path d="M439.116 249.98C440.402 249.98 441.445 249.071 441.445 247.949C441.445 246.827 440.402 245.918 439.116 245.918C437.83 245.918 436.787 246.827 436.787 247.949C436.787 249.071 437.83 249.98 439.116 249.98Z" fill="#FFEEFF"/>
<path d="M489.575 342.953C490.861 342.953 491.904 342.043 491.904 340.922C491.904 339.8 490.861 338.891 489.575 338.891C488.289 338.891 487.246 339.8 487.246 340.922C487.246 342.043 488.289 342.953 489.575 342.953Z" fill="#FFEEFF"/>
<path d="M315.428 381.316C316.715 381.316 317.757 380.407 317.757 379.285C317.757 378.163 316.715 377.254 315.428 377.254C314.142 377.254 313.1 378.163 313.1 379.285C313.1 380.407 314.142 381.316 315.428 381.316Z" fill="#FFEEFF"/>
<path d="M919.893 75.0855C921.179 75.0855 922.222 74.1762 922.222 73.0545C922.222 71.9328 921.179 71.0234 919.893 71.0234C918.607 71.0234 917.564 71.9328 917.564 73.0545C917.564 74.1762 918.607 75.0855 919.893 75.0855Z" fill="#FFEEFF"/>
<path d="M925.325 11.898C926.611 11.898 927.654 10.9887 927.654 9.86696C927.654 8.74526 926.611 7.83594 925.325 7.83594C924.039 7.83594 922.996 8.74526 922.996 9.86696C922.996 10.9887 924.039 11.898 925.325 11.898Z" fill="#FFEEFF"/>
</g>
<g opacity="0.55">
<path d="M277.132 262.84C277.132 263.968 276.097 264.871 274.803 264.871C273.51 264.871 272.475 263.968 272.475 262.84C272.475 261.711 273.51 260.809 274.803 260.809C275.838 260.809 277.132 261.711 277.132 262.84Z" fill="#FFEEFF"/>
<path d="M181.132 116.156C181.132 117.284 180.097 118.187 178.803 118.187C177.51 118.187 176.475 117.284 176.475 116.156C176.475 115.028 177.51 114.125 178.803 114.125C180.097 114.125 181.132 115.028 181.132 116.156Z" fill="#FFEEFF"/>
<path d="M225.898 105.097C225.898 106.226 224.863 107.128 223.569 107.128C222.275 107.128 221.24 106.226 221.24 105.097C221.24 103.969 222.275 103.066 223.569 103.066C224.863 103.066 225.898 103.969 225.898 105.097Z" fill="#FFEEFF"/>
<path d="M246.339 48.6795C246.339 49.8078 245.304 50.7105 244.011 50.7105C242.717 50.7105 241.682 49.8078 241.682 48.6795C241.682 47.5511 242.717 46.6484 244.011 46.6484C245.304 46.6484 246.339 47.5511 246.339 48.6795Z" fill="#FFEEFF"/>
<path d="M111.785 68.3156C111.785 69.4439 110.75 70.3466 109.456 70.3466C108.162 70.3466 107.127 69.4439 107.127 68.3156C107.127 67.1872 108.162 66.2846 109.456 66.2846C110.491 66.0589 111.785 66.9616 111.785 68.3156Z" fill="#FFEEFF"/>
<path d="M94.9643 68.3123C94.9643 69.4406 93.9293 70.3433 92.6355 70.3433C91.3417 70.3433 90.3066 69.4406 90.3066 68.3123C90.3066 67.1839 91.3417 66.2812 92.6355 66.2812C93.9293 66.2812 94.9643 67.1839 94.9643 68.3123Z" fill="#FFEEFF"/>
<path d="M26.1342 228.765C26.1342 229.894 25.0992 230.796 23.8054 230.796C22.5116 230.796 21.4766 229.894 21.4766 228.765C21.4766 227.637 22.5116 226.734 23.8054 226.734C24.8404 226.734 26.1342 227.637 26.1342 228.765Z" fill="#FFEEFF"/>
<path d="M77.6284 172.121C77.6284 173.249 76.5933 174.152 75.2995 174.152C74.0057 174.152 72.9707 173.249 72.9707 172.121C72.9707 170.993 74.0057 170.09 75.2995 170.09C76.5933 170.09 77.6284 170.993 77.6284 172.121Z" fill="#FFEEFF"/>
<path d="M88.2377 203.492C88.2377 204.62 87.2027 205.523 85.9089 205.523C84.6151 205.523 83.5801 204.62 83.5801 203.492C83.5801 202.364 84.6151 201.461 85.9089 201.461C87.2027 201.461 88.2377 202.364 88.2377 203.492Z" fill="#FFEEFF"/>
<path d="M234.437 171.672C234.437 172.8 233.402 173.703 232.108 173.703C230.814 173.703 229.779 172.8 229.779 171.672C229.779 170.543 230.814 169.641 232.108 169.641C233.402 169.641 234.437 170.543 234.437 171.672Z" fill="#FFEEFF"/>
<path d="M322.933 119.542C322.933 120.67 321.898 121.573 320.604 121.573C319.31 121.573 318.275 120.67 318.275 119.542C318.275 118.414 319.31 117.511 320.604 117.511C321.898 117.285 322.933 118.188 322.933 119.542Z" fill="#FFEEFF"/>
<path d="M348.808 91.5584C348.808 92.6867 347.773 93.5894 346.479 93.5894C345.185 93.5894 344.15 92.6867 344.15 91.5584C344.15 90.43 345.185 89.5273 346.479 89.5273C347.773 89.5273 348.808 90.43 348.808 91.5584Z" fill="#FFEEFF"/>
<path d="M296.021 32.4334C296.021 33.5617 294.986 34.4644 293.692 34.4644C292.398 34.4644 291.363 33.5617 291.363 32.4334C291.363 31.305 292.398 30.4023 293.692 30.4023C294.986 30.4023 296.021 31.305 296.021 32.4334Z" fill="#FFEEFF"/>
<path d="M368.216 11.8982C368.216 13.0266 367.181 13.9292 365.887 13.9292C364.594 13.9292 363.559 13.0266 363.559 11.8982C363.559 10.7699 364.594 9.86719 365.887 9.86719C367.181 9.86719 368.216 10.7699 368.216 11.8982Z" fill="#FFEEFF"/>
<path d="M91.0835 367.777C91.0835 368.905 90.0484 369.808 88.7546 369.808C87.4608 369.808 86.4258 368.905 86.4258 367.777C86.4258 366.648 87.4608 365.745 88.7546 365.745C90.0484 365.52 91.0835 366.422 91.0835 367.777Z" fill="#FFEEFF"/>
<path d="M75.0405 422.617C75.0405 423.745 74.0055 424.648 72.7117 424.648C71.4179 424.648 70.3828 423.745 70.3828 422.617C70.3828 421.489 71.4179 420.586 72.7117 420.586C74.0055 420.586 75.0405 421.489 75.0405 422.617Z" fill="#FFEEFF"/>
<path d="M96.7768 475.195C96.7768 476.323 95.7418 477.226 94.448 477.226C93.1542 477.226 92.1191 476.323 92.1191 475.195C92.1191 474.067 93.1542 473.164 94.448 473.164C95.7418 473.164 96.7768 474.067 96.7768 475.195Z" fill="#FFEEFF"/>
<path d="M53.8218 540.191C53.8218 541.32 52.7867 542.222 51.4929 542.222C50.1991 542.222 49.1641 541.32 49.1641 540.191C49.1641 539.063 50.1991 538.16 51.4929 538.16C52.7867 538.16 53.8218 539.063 53.8218 540.191Z" fill="#FFEEFF"/>
<path d="M13.9721 599.992C13.9721 601.12 12.9371 602.023 11.6433 602.023C10.3495 602.023 9.31445 601.12 9.31445 599.992C9.31445 598.864 10.3495 597.961 11.6433 597.961C12.9371 597.961 13.9721 598.864 13.9721 599.992Z" fill="#FFEEFF"/>
<path d="M1.55221 636.55C1.55221 637.678 0.517177 638.581 -0.776624 638.581C-2.07042 638.581 -3.10547 637.678 -3.10547 636.55C-3.10547 635.422 -2.07042 634.519 -0.776624 634.519C0.517177 634.293 1.55221 635.196 1.55221 636.55Z" fill="#FFEEFF"/>
<path d="M174.664 545.379C174.664 546.507 173.629 547.41 172.335 547.41C171.041 547.41 170.006 546.507 170.006 545.379C170.006 544.25 171.041 543.348 172.335 543.348C173.629 543.348 174.664 544.25 174.664 545.379Z" fill="#FFEEFF"/>
<path d="M191.999 526.875C191.999 528.003 190.964 528.906 189.671 528.906C188.377 528.906 187.342 528.003 187.342 526.875C187.342 525.746 188.377 524.844 189.671 524.844C190.964 524.844 191.999 525.746 191.999 526.875Z" fill="#FFEEFF"/>
<path d="M270.921 526.648C270.921 527.777 269.886 528.679 268.593 528.679C267.299 528.679 266.264 527.777 266.264 526.648C266.264 525.52 267.299 524.617 268.593 524.617C269.628 524.617 270.921 525.52 270.921 526.648Z" fill="#FFEEFF"/>
<path d="M281.79 503.406C281.79 504.534 280.755 505.437 279.462 505.437C278.168 505.437 277.133 504.534 277.133 503.406C277.133 502.278 278.168 501.375 279.462 501.375C280.755 501.375 281.79 502.278 281.79 503.406Z" fill="#FFEEFF"/>
<path d="M236.248 449.922C236.248 451.05 235.212 451.953 233.919 451.953C232.625 451.953 231.59 451.05 231.59 449.922C231.59 448.793 232.625 447.891 233.919 447.891C235.212 447.891 236.248 448.793 236.248 449.922Z" fill="#FFEEFF"/>
<path d="M278.425 460.301C278.425 461.429 277.39 462.332 276.096 462.332C274.803 462.332 273.768 461.429 273.768 460.301C273.768 459.172 274.803 458.27 276.096 458.27C277.39 458.27 278.425 459.172 278.425 460.301Z" fill="#FFEEFF"/>
<path d="M337.941 479.484C337.941 480.612 336.906 481.515 335.612 481.515C334.318 481.515 333.283 480.612 333.283 479.484C333.283 478.356 334.318 477.453 335.612 477.453C336.906 477.453 337.941 478.356 337.941 479.484Z" fill="#FFEEFF"/>
<path d="M360.195 508.597C360.195 509.726 359.16 510.628 357.866 510.628C356.572 510.628 355.537 509.726 355.537 508.597C355.537 507.469 356.572 506.566 357.866 506.566C358.901 506.566 360.195 507.469 360.195 508.597Z" fill="#FFEEFF"/>
<path d="M283.083 547.863C283.083 548.991 282.048 549.894 280.755 549.894C279.461 549.894 278.426 548.991 278.426 547.863C278.426 546.735 279.461 545.832 280.755 545.832C282.048 545.832 283.083 546.735 283.083 547.863Z" fill="#FFEEFF"/>
<path d="M62.103 614.66C62.103 615.788 61.068 616.691 59.7742 616.691C58.4804 616.691 57.4453 615.788 57.4453 614.66C57.4453 613.532 58.4804 612.629 59.7742 612.629C61.068 612.629 62.103 613.532 62.103 614.66Z" fill="#FFEEFF"/>
<path d="M42.437 691.841C42.437 692.97 41.4019 693.872 40.1081 693.872C38.8143 693.872 37.7793 692.97 37.7793 691.841C37.7793 690.713 38.8143 689.81 40.1081 689.81C41.4019 689.585 42.437 690.713 42.437 691.841Z" fill="#FFEEFF"/>
<path d="M129.121 685.07C129.121 686.198 128.086 687.101 126.792 687.101C125.498 687.101 124.463 686.198 124.463 685.07C124.463 683.942 125.498 683.039 126.792 683.039C128.086 683.039 129.121 683.942 129.121 685.07Z" fill="#FFEEFF"/>
<path d="M220.205 611.726C220.205 612.855 219.17 613.757 217.876 613.757C216.582 613.757 215.547 612.855 215.547 611.726C215.547 610.598 216.582 609.695 217.876 609.695C219.17 609.695 220.205 610.598 220.205 611.726Z" fill="#FFEEFF"/>
<path d="M224.603 631.586C224.603 632.714 223.568 633.617 222.274 633.617C220.98 633.617 219.945 632.714 219.945 631.586C219.945 630.457 220.98 629.555 222.274 629.555C223.568 629.555 224.603 630.457 224.603 631.586Z" fill="#FFEEFF"/>
<path d="M132.486 716.211C132.486 717.339 131.451 718.242 130.157 718.242C128.863 718.242 127.828 717.339 127.828 716.211C127.828 715.082 128.863 714.18 130.157 714.18C131.192 714.18 132.486 715.082 132.486 716.211Z" fill="#FFEEFF"/>
<path d="M85.9077 856.351C85.9077 857.48 84.8726 858.382 83.5788 858.382C82.285 858.382 81.25 857.48 81.25 856.351C81.25 855.223 82.285 854.32 83.5788 854.32C84.8726 854.32 85.9077 855.223 85.9077 856.351Z" fill="#FFEEFF"/>
<path d="M16.0424 916.379C16.0424 917.507 15.0074 918.41 13.7136 918.41C12.4198 918.41 11.3848 917.507 11.3848 916.379C11.3848 915.25 12.4198 914.348 13.7136 914.348C15.0074 914.348 16.0424 915.25 16.0424 916.379Z" fill="#FFEEFF"/>
<path d="M126.017 929.695C126.017 930.823 124.982 931.726 123.688 931.726C122.394 931.726 121.359 930.823 121.359 929.695C121.359 928.567 122.394 927.664 123.688 927.664C124.982 927.664 126.017 928.567 126.017 929.695Z" fill="#FFEEFF"/>
<path d="M262.642 941.203C262.642 942.331 261.607 943.234 260.313 943.234C259.019 943.234 257.984 942.331 257.984 941.203C257.984 940.075 259.019 939.172 260.313 939.172C261.607 939.172 262.642 940.075 262.642 941.203Z" fill="#FFEEFF"/>
<path d="M257.466 786.394C257.466 787.523 256.431 788.425 255.137 788.425C253.844 788.425 252.809 787.523 252.809 786.394C252.809 785.266 253.844 784.363 255.137 784.363C256.431 784.363 257.466 785.266 257.466 786.394Z" fill="#FFEEFF"/>
<path d="M315.947 866.508C315.947 867.636 314.912 868.539 313.618 868.539C312.324 868.539 311.289 867.636 311.289 866.508C311.289 865.379 312.324 864.477 313.618 864.477C314.912 864.477 315.947 865.379 315.947 866.508Z" fill="#FFEEFF"/>
<path d="M304.044 919.767C304.044 920.895 303.009 921.798 301.716 921.798C300.422 921.798 299.387 920.895 299.387 919.767C299.387 918.639 300.422 917.736 301.716 917.736C303.009 917.51 304.044 918.639 304.044 919.767Z" fill="#FFEEFF"/>
<path d="M318.792 1009.13C318.792 1010.26 317.757 1011.16 316.464 1011.16C315.17 1011.16 314.135 1010.26 314.135 1009.13C314.135 1008 315.17 1007.1 316.464 1007.1C317.499 1007.1 318.792 1008 318.792 1009.13Z" fill="#FFEEFF"/>
<path d="M205.197 866.961C205.197 868.089 204.162 868.992 202.868 868.992C201.574 868.992 200.539 868.089 200.539 866.961C200.539 865.832 201.574 864.93 202.868 864.93C203.903 864.93 205.197 865.832 205.197 866.961Z" fill="#FFEEFF"/>
<path d="M380.636 232.152C380.636 233.28 379.601 234.183 378.307 234.183C377.014 234.183 375.979 233.28 375.979 232.152C375.979 231.024 377.014 230.121 378.307 230.121C379.601 230.121 380.636 231.024 380.636 232.152Z" fill="#FFEEFF"/>
<path d="M393.056 268.933C393.056 270.062 392.021 270.964 390.727 270.964C389.433 270.964 388.398 270.062 388.398 268.933C388.398 267.805 389.433 266.902 390.727 266.902C391.762 266.902 393.056 267.805 393.056 268.933Z" fill="#FFEEFF"/>
<path d="M396.939 286.535C396.939 287.663 395.904 288.566 394.61 288.566C393.316 288.566 392.281 287.663 392.281 286.535C392.281 285.407 393.316 284.504 394.61 284.504C395.904 284.504 396.939 285.407 396.939 286.535Z" fill="#FFEEFF"/>
<path d="M194.33 254.941C194.33 256.07 193.295 256.972 192.001 256.972C190.707 256.972 189.672 256.07 189.672 254.941C189.672 253.813 190.707 252.91 192.001 252.91C193.036 252.91 194.33 253.813 194.33 254.941Z" fill="#FFEEFF"/>
<path d="M1836.16 36.9451C1836.16 38.0734 1835.13 38.9761 1833.83 38.9761C1832.54 38.9761 1831.5 38.0734 1831.5 36.9451C1831.5 35.8167 1832.54 34.9141 1833.83 34.9141C1835.13 34.9141 1836.16 35.8167 1836.16 36.9451Z" fill="#FFEEFF"/>
<path d="M1828.92 96.521C1828.92 97.6494 1827.88 98.552 1826.59 98.552C1825.29 98.552 1824.26 97.6494 1824.26 96.521C1824.26 95.3927 1825.29 94.49 1826.59 94.49C1827.88 94.2643 1828.92 95.3927 1828.92 96.521Z" fill="#FFEEFF"/>
<path d="M1840.56 119.542C1840.56 120.67 1839.53 121.573 1838.23 121.573C1836.94 121.573 1835.9 120.67 1835.9 119.542C1835.9 118.414 1836.94 117.511 1838.23 117.511C1839.27 117.285 1840.56 118.188 1840.56 119.542Z" fill="#FFEEFF"/>
<path d="M1776.65 175.508C1776.65 176.636 1775.61 177.539 1774.32 177.539C1773.02 177.539 1771.99 176.636 1771.99 175.508C1771.99 174.379 1773.02 173.477 1774.32 173.477C1775.61 173.477 1776.65 174.379 1776.65 175.508Z" fill="#FFEEFF"/>
<path d="M1691.52 127.215C1691.52 128.343 1690.48 129.246 1689.19 129.246C1687.89 129.246 1686.86 128.343 1686.86 127.215C1686.86 126.086 1687.89 125.184 1689.19 125.184C1690.22 125.184 1691.52 126.086 1691.52 127.215Z" fill="#FFEEFF"/>
<path d="M1731.88 111.644C1731.88 112.773 1730.85 113.675 1729.55 113.675C1728.26 113.675 1727.22 112.773 1727.22 111.644C1727.22 110.516 1728.26 109.613 1729.55 109.613C1730.85 109.613 1731.88 110.516 1731.88 111.644Z" fill="#FFEEFF"/>
<path d="M1294.32 33.7888C1294.32 34.9172 1293.28 35.8199 1291.99 35.8199C1290.7 35.8199 1289.66 34.9172 1289.66 33.7888C1289.66 32.6605 1290.7 31.7578 1291.99 31.7578C1293.02 31.7578 1294.32 32.6605 1294.32 33.7888Z" fill="#FFEEFF"/>
<path d="M1492.53 48.0037C1492.53 49.132 1491.49 50.0347 1490.2 50.0347C1488.91 50.0347 1487.87 49.132 1487.87 48.0037C1487.87 46.8753 1488.91 45.9727 1490.2 45.9727C1491.49 45.9727 1492.53 46.8753 1492.53 48.0037Z" fill="#FFEEFF"/>
<path d="M1210.48 110.289C1210.48 111.417 1209.44 112.32 1208.15 112.32C1206.86 112.32 1205.82 111.417 1205.82 110.289C1205.82 109.16 1206.86 108.258 1208.15 108.258C1209.44 108.258 1210.48 109.16 1210.48 110.289Z" fill="#FFEEFF"/>
<path d="M1405.84 138.949C1405.84 140.077 1404.81 140.98 1403.51 140.98C1402.22 140.98 1401.19 140.077 1401.19 138.949C1401.19 137.821 1402.22 136.918 1403.51 136.918C1404.81 136.918 1405.84 137.821 1405.84 138.949Z" fill="#FFEEFF"/>
<path d="M444.808 539.285C444.808 540.413 443.773 541.316 442.479 541.316C441.185 541.316 440.15 540.413 440.15 539.285C440.15 538.157 441.185 537.254 442.479 537.254C443.773 537.254 444.808 538.157 444.808 539.285Z" fill="#FFEEFF"/>
<path d="M1802.52 227.187C1802.52 228.316 1801.49 229.218 1800.19 229.218C1798.9 229.218 1797.87 228.316 1797.87 227.187C1797.87 226.059 1798.9 225.156 1800.19 225.156C1801.49 225.156 1802.52 226.059 1802.52 227.187Z" fill="#FFEEFF"/>
<path d="M1924.4 327.833C1924.4 328.962 1923.36 329.865 1922.07 329.865C1920.78 329.865 1919.74 328.962 1919.74 327.833C1919.74 326.705 1920.78 325.802 1922.07 325.802C1923.36 325.577 1924.4 326.705 1924.4 327.833Z" fill="#FFEEFF"/>
<path d="M160.173 1002.14C160.173 1003.26 159.138 1004.17 157.844 1004.17C156.551 1004.17 155.516 1003.26 155.516 1002.14C155.516 1001.01 156.551 1000.11 157.844 1000.11C159.138 1000.11 160.173 1001.01 160.173 1002.14Z" fill="#FFEEFF"/>
</g>
<g opacity="0.5">
<path d="M-7.50391 233.504C-7.50391 233.504 488.28 513.56 918.599 571.331" stroke="url(#paint2_linear_405_36096)" stroke-width="0.646205" stroke-miterlimit="10"/>
<path d="M-7.50391 257.652C-7.50391 257.652 482.07 533.195 918.599 571.333" stroke="url(#paint3_linear_405_36096)" stroke-width="0.646205" stroke-miterlimit="10"/>
<path d="M-7.50391 281.797C-7.50391 281.797 476.119 552.826 918.599 571.331" stroke="url(#paint4_linear_405_36096)" stroke-width="0.646205" stroke-miterlimit="10"/>
<path d="M-7.50391 305.945C-7.50391 305.945 470.167 572.235 918.599 571.333" stroke="url(#paint5_linear_405_36096)" stroke-width="0.646205" stroke-miterlimit="10"/>
<path d="M-7.50391 330.09C-7.50391 330.09 464.216 591.867 918.599 571.331" stroke="url(#paint6_linear_405_36096)" stroke-width="0.646205" stroke-miterlimit="10"/>
<path d="M-7.50391 354.238C-7.50391 354.238 458.264 611.276 918.599 571.332" stroke="url(#paint7_linear_405_36096)" stroke-width="0.646205" stroke-miterlimit="10"/>
<path d="M-7.50391 378.383C-7.50391 378.383 452.313 630.907 918.599 571.33" stroke="url(#paint8_linear_405_36096)" stroke-width="0.646205" stroke-miterlimit="10"/>
<path d="M-7.50391 402.531C-7.50391 402.531 446.103 650.316 918.599 571.332" stroke="url(#paint9_linear_405_36096)" stroke-width="0.646205" stroke-miterlimit="10"/>
<path d="M-7.50391 426.902C-7.50391 426.902 440.151 670.174 918.599 571.557" stroke="url(#paint10_linear_405_36096)" stroke-width="0.646205" stroke-miterlimit="10"/>
<path d="M-7.50391 451.051C-7.50391 451.051 434.2 689.584 918.599 571.558" stroke="url(#paint11_linear_405_36096)" stroke-width="0.646205" stroke-miterlimit="10"/>
<path d="M-7.50391 475.195C-7.50391 475.195 428.248 709.215 918.599 571.556" stroke="url(#paint12_linear_405_36096)" stroke-width="0.646205" stroke-miterlimit="10"/>
<path d="M-7.50391 499.344C-7.50391 499.344 422.297 728.85 918.599 571.558" stroke="url(#paint13_linear_405_36096)" stroke-width="0.646205" stroke-miterlimit="10"/>
<path d="M-7.50391 523.492C-7.50391 523.492 416.086 748.259 918.599 571.56" stroke="url(#paint14_linear_405_36096)" stroke-width="0.646205" stroke-miterlimit="10"/>
<path d="M-7.50391 547.637C-7.50391 547.637 410.135 767.89 918.599 571.558" stroke="url(#paint15_linear_405_36096)" stroke-width="0.646205" stroke-miterlimit="10"/>
<path d="M-7.50391 571.784C-7.50391 571.784 404.183 787.299 918.599 571.559" stroke="url(#paint16_linear_405_36096)" stroke-width="0.646205" stroke-miterlimit="10"/>
<path d="M-7.50391 595.93C-7.50391 595.93 398.232 806.931 918.599 571.332" stroke="url(#paint17_linear_405_36096)" stroke-width="0.646205" stroke-miterlimit="10"/>
<path d="M-7.50391 620.077C-7.50391 620.077 392.28 826.339 918.599 571.332" stroke="url(#paint18_linear_405_36096)" stroke-width="0.646205" stroke-miterlimit="10"/>
</g>
<g opacity="0.3">
<path d="M1191.07 439.542C1191.07 439.542 1426.03 57.483 1933.2 256.749" stroke="url(#paint19_linear_405_36096)" stroke-width="0.646205" stroke-miterlimit="10"/>
<path d="M1191.07 439.543C1191.07 439.543 1252.4 351.081 1377.64 287.442C1500.81 224.48 1687.37 183.859 1933.2 269.84" stroke="url(#paint20_linear_405_36096)" stroke-width="0.646205" stroke-miterlimit="10"/>
<path d="M1191.07 439.541C1191.07 439.541 1253.95 359.88 1380.48 303.011C1504.69 247.045 1693.07 209.584 1933.2 282.927" stroke="url(#paint21_linear_405_36096)" stroke-width="0.646205" stroke-miterlimit="10"/>
<path d="M1191.07 439.541C1191.07 439.541 1255.5 368.681 1383.07 318.582C1508.31 269.386 1698.5 235.31 1932.94 295.789" stroke="url(#paint22_linear_405_36096)" stroke-width="0.646205" stroke-miterlimit="10"/>
<path d="M1191.07 439.541C1191.07 439.541 1257.06 377.256 1385.92 334.379C1512.19 291.953 1704.45 261.262 1933.2 309.104" stroke="url(#paint23_linear_405_36096)" stroke-width="0.646205" stroke-miterlimit="10"/>
<path d="M1191.07 439.544C1191.07 439.544 1258.61 386.06 1388.77 349.953C1516.08 314.297 1710.15 286.991 1933.2 321.97" stroke="url(#paint24_linear_405_36096)" stroke-width="0.646205" stroke-miterlimit="10"/>
<path d="M1191.07 439.543C1191.07 439.543 1260.16 395.087 1391.35 365.524C1519.7 336.864 1715.84 312.717 1933.2 335.058" stroke="url(#paint25_linear_405_36096)" stroke-width="0.646205" stroke-miterlimit="10"/>
<path d="M1191.07 439.541C1191.07 439.541 1261.71 403.66 1394.2 381.319C1523.58 359.429 1721.53 338.667 1933.2 348.371" stroke="url(#paint26_linear_405_36096)" stroke-width="0.646205" stroke-miterlimit="10"/>
<path d="M1191.07 439.542C1191.07 439.542 1263.27 412.461 1396.79 396.89C1526.94 381.77 1726.96 364.394 1932.94 361.234" stroke="url(#paint27_linear_405_36096)" stroke-width="0.646205" stroke-miterlimit="10"/>
<path d="M1191.07 439.544C1191.07 439.544 1264.82 421.264 1399.63 412.689C1530.82 404.339 1732.92 390.348 1933.2 374.551" stroke="url(#paint28_linear_405_36096)" stroke-width="0.646205" stroke-miterlimit="10"/>
<path d="M1191.07 439.54C1191.07 439.54 1266.37 429.836 1402.48 428.256C1534.71 426.677 1738.61 416.07 1933.2 387.41" stroke="url(#paint29_linear_405_36096)" stroke-width="0.646205" stroke-miterlimit="10"/>
<path d="M1191.07 439.541C1191.07 439.541 1267.92 438.412 1405.07 443.829C1538.33 448.793 1744.04 441.798 1933.2 400.5" stroke="url(#paint30_linear_405_36096)" stroke-width="0.646205" stroke-miterlimit="10"/>
<path d="M1191.07 439.542C1191.07 439.542 1269.48 447.215 1407.91 459.626C1542.21 471.361 1749.99 467.751 1933.2 413.59" stroke="url(#paint31_linear_405_36096)" stroke-width="0.646205" stroke-miterlimit="10"/>
<path d="M1191.07 439.543C1191.07 439.543 1271.03 455.791 1410.5 475.199C1545.83 493.704 1755.43 493.478 1932.94 426.68" stroke="url(#paint32_linear_405_36096)" stroke-width="0.646205" stroke-miterlimit="10"/>
<path d="M1191.07 439.543C1191.07 439.543 1272.58 464.592 1413.35 490.77C1549.71 516.045 1761.38 519.204 1933.2 439.543" stroke="url(#paint33_linear_405_36096)" stroke-width="0.646205" stroke-miterlimit="10"/>
<path d="M1191.07 439.543C1191.07 439.543 1274.13 473.393 1416.19 506.567C1553.6 538.612 1767.07 545.156 1933.2 452.857" stroke="url(#paint34_linear_405_36096)" stroke-width="0.646205" stroke-miterlimit="10"/>
<path d="M1191.07 439.543C1191.07 439.543 1275.69 481.969 1418.78 522.138C1557.22 560.953 1772.51 570.883 1933.2 465.721" stroke="url(#paint35_linear_405_36096)" stroke-width="0.646205" stroke-miterlimit="10"/>
</g>
<g opacity="0.8">
<path d="M-7.50391 409.301C-7.50391 409.301 223.569 299.174 731.515 525.069C1002.95 645.803 1134.92 509.724 1265.34 509.949C1461.99 510.401 1569.9 685.295 1933.2 486.705" stroke="url(#paint36_linear_405_36096)" stroke-width="1.29241" stroke-miterlimit="10"/>
<path d="M-7.50391 428.932C-7.50391 428.932 238.059 290.145 741.348 511.076C1022.88 633.614 1143.2 523.262 1279.57 522.585C1478.04 522.133 1592.67 676.717 1933.2 490.54" stroke="url(#paint37_linear_405_36096)" stroke-width="1.29241" stroke-miterlimit="10"/>
<path d="M-7.50391 448.566C-7.50391 448.566 251.515 282.473 750.922 497.084C1042.03 622.331 1151.22 536.351 1293.54 534.997C1493.82 533.192 1615.18 668.142 1932.94 494.376" stroke="url(#paint38_linear_405_36096)" stroke-width="1.29241" stroke-miterlimit="10"/>
<path d="M-7.50391 467.974C-7.50391 467.974 265.747 273.673 760.755 483.094C1061.95 610.372 1159.5 549.667 1307.77 547.41C1509.87 544.476 1637.95 659.342 1932.94 497.988" stroke="url(#paint39_linear_405_36096)" stroke-width="1.29241" stroke-miterlimit="10"/>
<path d="M-7.50391 487.608C-7.50391 487.608 279.72 264.872 770.588 469.103C1081.88 598.411 1167.53 562.981 1322.01 559.822C1525.91 555.76 1660.72 650.767 1933.2 501.825" stroke="url(#paint40_linear_405_36096)" stroke-width="1.29241" stroke-miterlimit="10"/>
<path d="M-7.50391 507.24C-7.50391 507.24 293.952 256.07 780.421 455.11C1101.54 586.45 1175.81 576.295 1336.24 572.459C1541.95 567.268 1683.49 642.191 1933.2 505.661" stroke="url(#paint41_linear_405_36096)" stroke-width="1.29241" stroke-miterlimit="10"/>
<path d="M-7.50391 526.65C-7.50391 526.65 308.442 246.819 790.254 440.895C1121.47 574.266 1184.09 589.611 1350.47 584.647C1557.99 578.554 1706.01 633.166 1933.2 509.047" stroke="url(#paint42_linear_405_36096)" stroke-width="1.29241" stroke-miterlimit="10"/>
<path d="M-7.50391 546.283C-7.50391 546.283 322.674 237.792 800.086 426.903C1141.65 562.305 1192.37 602.926 1364.7 597.058C1574.04 590.062 1728.78 624.59 1933.2 512.883" stroke="url(#paint43_linear_405_36096)" stroke-width="1.29241" stroke-miterlimit="10"/>
<path d="M-7.50391 565.918C-7.50391 565.918 337.165 228.542 809.661 412.914C1161.32 550.121 1200.39 616.468 1378.67 609.698C1590.08 601.573 1751.29 616.016 1933.2 516.722" stroke="url(#paint44_linear_405_36096)" stroke-width="1.29241" stroke-miterlimit="10"/>
<path d="M-7.50391 585.322C-7.50391 585.322 351.655 219.06 819.493 398.693C1181.24 537.706 1208.67 629.553 1392.91 621.881C1606.12 612.854 1774.06 607.212 1933.2 520.329" stroke="url(#paint45_linear_405_36096)" stroke-width="1.29241" stroke-miterlimit="10"/>
<path d="M-7.50391 604.958C-7.50391 604.958 366.146 209.585 829.326 384.705C1201.16 525.297 1216.69 643.096 1407.14 634.295C1622.17 624.366 1796.83 598.414 1933.2 523.943" stroke="url(#paint46_linear_405_36096)" stroke-width="1.29241" stroke-miterlimit="10"/>
<path d="M-7.50391 624.589C-7.50391 624.589 380.636 200.104 839.159 370.71C1221.61 512.882 1225.23 656.634 1421.37 646.93C1638.21 636.098 1819.6 590.061 1933.2 528.002" stroke="url(#paint47_linear_405_36096)" stroke-width="1.29241" stroke-miterlimit="10"/>
<path d="M-7.50391 643.999C-7.50391 643.999 395.127 190.403 848.992 356.496C1241.53 500.247 1233.51 669.951 1435.6 659.119C1654.25 647.384 1842.37 581.037 1933.2 531.39" stroke="url(#paint48_linear_405_36096)" stroke-width="1.29241" stroke-miterlimit="10"/>
<path d="M-7.50391 663.631C-7.50391 663.631 409.876 180.698 858.566 342.503C1261.46 487.609 1241.53 683.716 1449.57 671.53C1670.04 659.343 1864.88 572.461 1933.2 535.225" stroke="url(#paint49_linear_405_36096)" stroke-width="1.29241" stroke-miterlimit="10"/>
<path d="M-7.50391 683.264C-7.50391 683.264 424.367 171.22 868.399 328.511C1281.64 474.971 1249.81 697.03 1463.81 683.941C1686.08 670.852 1887.66 563.659 1933.2 538.835" stroke="url(#paint50_linear_405_36096)" stroke-width="1.29241" stroke-miterlimit="10"/>
<path d="M-7.50391 702.673C-7.50391 702.673 439.375 160.615 878.232 314.296C1302.34 461.432 1257.83 710.346 1478.04 696.354C1702.12 682.363 1910.43 555.085 1933.2 542.673" stroke="url(#paint51_linear_405_36096)" stroke-width="1.29241" stroke-miterlimit="10"/>
<path d="M-7.50391 722.305C-7.50391 722.305 453.865 151.361 888.065 300.303C1322.26 449.245 1266.37 723.884 1492.27 708.765C1718.17 693.645 1933.2 546.282 1933.2 546.282" stroke="url(#paint52_linear_405_36096)" stroke-width="1.29241" stroke-miterlimit="10"/>
</g>
<g opacity="0.8">
<path d="M-7.50391 413.59C-7.50391 413.59 223.569 303.463 731.515 529.358C1002.95 650.092 1134.92 514.013 1265.34 514.238C1461.99 514.69 1569.9 689.584 1933.2 490.994" stroke="url(#paint53_linear_405_36096)" stroke-width="0.646205" stroke-miterlimit="10"/>
<path d="M-7.50391 432.998C-7.50391 432.998 238.059 294.211 741.348 515.142C1022.88 637.681 1143.2 527.328 1279.57 526.651C1478.04 526.2 1592.67 680.784 1933.2 494.606" stroke="url(#paint54_linear_405_36096)" stroke-width="0.646205" stroke-miterlimit="10"/>
<path d="M-7.50391 452.628C-7.50391 452.628 251.515 286.535 750.922 501.147C1042.03 626.394 1151.22 540.414 1293.54 539.059C1493.82 537.254 1615.18 672.205 1932.94 498.439" stroke="url(#paint55_linear_405_36096)" stroke-width="0.646205" stroke-miterlimit="10"/>
<path d="M-7.50391 472.264C-7.50391 472.264 265.747 277.962 760.755 487.383C1061.95 614.661 1159.5 553.956 1307.77 551.699C1509.87 548.766 1637.95 663.631 1932.94 502.278" stroke="url(#paint56_linear_405_36096)" stroke-width="0.646205" stroke-miterlimit="10"/>
<path d="M-7.50391 491.67C-7.50391 491.67 279.72 268.934 770.588 473.165C1081.88 602.474 1167.53 567.044 1322.01 563.884C1525.91 559.822 1660.72 654.829 1933.2 505.887" stroke="url(#paint57_linear_405_36096)" stroke-width="0.646205" stroke-miterlimit="10"/>
<path d="M-7.50391 511.303C-7.50391 511.303 293.952 260.132 780.421 459.173C1101.54 590.513 1175.81 580.358 1336.24 576.521C1541.95 571.331 1683.49 646.253 1933.2 509.723" stroke="url(#paint58_linear_405_36096)" stroke-width="0.646205" stroke-miterlimit="10"/>
<path d="M-7.50391 530.939C-7.50391 530.939 308.442 251.108 790.254 445.184C1121.47 578.555 1184.09 593.9 1350.47 588.936C1557.99 582.843 1706.01 637.455 1933.2 513.336" stroke="url(#paint59_linear_405_36096)" stroke-width="0.646205" stroke-miterlimit="10"/>
<path d="M-7.50391 550.345C-7.50391 550.345 322.674 241.855 800.086 430.966C1141.65 566.368 1192.37 606.988 1364.7 601.121C1574.04 594.125 1728.78 628.652 1933.2 516.946" stroke="url(#paint60_linear_405_36096)" stroke-width="0.646205" stroke-miterlimit="10"/>
<path d="M-7.50391 569.98C-7.50391 569.98 337.165 232.604 809.661 416.976C1161.32 554.183 1200.39 620.53 1378.67 613.76C1590.08 605.636 1751.29 620.079 1933.2 520.784" stroke="url(#paint61_linear_405_36096)" stroke-width="0.646205" stroke-miterlimit="10"/>
<path d="M-7.50391 589.611C-7.50391 589.611 351.655 223.349 819.493 402.982C1181.24 541.995 1208.67 633.842 1392.91 626.17C1606.12 617.143 1774.06 611.501 1933.2 524.618" stroke="url(#paint62_linear_405_36096)" stroke-width="0.646205" stroke-miterlimit="10"/>
<path d="M-7.50391 609.021C-7.50391 609.021 366.146 213.648 829.326 388.767C1201.16 529.359 1216.69 647.159 1407.14 638.358C1622.17 628.428 1796.83 602.476 1933.2 528.005" stroke="url(#paint63_linear_405_36096)" stroke-width="0.646205" stroke-miterlimit="10"/>
<path d="M-7.50391 628.651C-7.50391 628.651 380.636 204.167 839.159 374.773C1221.61 516.945 1225.23 660.696 1421.37 650.993C1638.21 640.16 1819.6 594.124 1933.2 532.065" stroke="url(#paint64_linear_405_36096)" stroke-width="0.646205" stroke-miterlimit="10"/>
<path d="M-7.50391 648.288C-7.50391 648.288 395.127 194.692 848.992 360.785C1241.53 504.536 1233.51 674.24 1435.6 663.408C1654.25 651.673 1842.37 585.326 1933.2 535.679" stroke="url(#paint65_linear_405_36096)" stroke-width="0.646205" stroke-miterlimit="10"/>
<path d="M-7.50391 667.694C-7.50391 667.694 409.876 184.761 858.566 346.566C1261.46 491.671 1241.53 687.778 1449.57 675.592C1670.04 663.406 1864.88 576.523 1933.2 539.288" stroke="url(#paint66_linear_405_36096)" stroke-width="0.646205" stroke-miterlimit="10"/>
<path d="M-7.50391 687.326C-7.50391 687.326 424.367 175.282 868.399 332.574C1281.64 479.033 1249.81 701.318 1463.81 688.004C1686.08 674.915 1887.66 567.722 1933.2 542.898" stroke="url(#paint67_linear_405_36096)" stroke-width="0.646205" stroke-miterlimit="10"/>
<path d="M-7.50391 706.958C-7.50391 706.958 439.375 164.9 878.232 318.581C1302.34 465.717 1258.09 714.631 1478.04 700.64C1702.12 686.648 1910.43 559.37 1933.2 546.959" stroke="url(#paint68_linear_405_36096)" stroke-width="0.646205" stroke-miterlimit="10"/>
<path d="M-7.50391 726.367C-7.50391 726.367 453.865 155.423 888.065 304.365C1322.26 453.307 1266.37 727.947 1492.27 712.827C1718.17 697.707 1933.2 550.345 1933.2 550.345" stroke="url(#paint69_linear_405_36096)" stroke-width="0.646205" stroke-miterlimit="10"/>
</g>
</g>
</g>
<defs>
<linearGradient id="paint0_linear_405_36096" x1="960" y1="0" x2="960" y2="1015" gradientUnits="userSpaceOnUse">
<stop stop-color="#236BBD"/>
<stop offset="1" stop-color="#073C77"/>
</linearGradient>
<radialGradient id="paint1_radial_405_36096" cx="0" cy="0" r="1" gradientUnits="userSpaceOnUse" gradientTransform="translate(962.917 505.013) scale(824.377 650.125)">
<stop stop-color="#4E1B8F"/>
<stop offset="0.1464" stop-color="#441476"/>
<stop offset="0.345" stop-color="#3A0C5C"/>
<stop offset="0.5483" stop-color="#320649"/>
<stop offset="0.7573" stop-color="#2D033E"/>
<stop offset="0.9805" stop-color="#2C023A"/>
</radialGradient>
<linearGradient id="paint2_linear_405_36096" x1="-7.79682" y1="402.495" x2="918.621" y2="402.495" gradientUnits="userSpaceOnUse">
<stop stop-color="#87888A"/>
<stop offset="0.4974" stop-color="#E5E5E5"/>
<stop offset="1" stop-color="#7D7E80"/>
</linearGradient>
<linearGradient id="paint3_linear_405_36096" x1="-7.79631" y1="414.572" x2="918.604" y2="414.572" gradientUnits="userSpaceOnUse">
<stop stop-color="#87888A"/>
<stop offset="0.4974" stop-color="#E5E5E5"/>
<stop offset="1" stop-color="#7D7E80"/>
</linearGradient>
<linearGradient id="paint4_linear_405_36096" x1="-7.79579" y1="426.645" x2="918.587" y2="426.645" gradientUnits="userSpaceOnUse">
<stop stop-color="#87888A"/>
<stop offset="0.4974" stop-color="#E5E5E5"/>
<stop offset="1" stop-color="#7D7E80"/>
</linearGradient>
<linearGradient id="paint5_linear_405_36096" x1="-7.79501" y1="438.723" x2="918.573" y2="438.723" gradientUnits="userSpaceOnUse">
<stop stop-color="#87888A"/>
<stop offset="0.4974" stop-color="#E5E5E5"/>
<stop offset="1" stop-color="#7D7E80"/>
</linearGradient>
<linearGradient id="paint6_linear_405_36096" x1="-7.79449" y1="451.369" x2="918.589" y2="451.369" gradientUnits="userSpaceOnUse">
<stop stop-color="#87888A"/>
<stop offset="0.4974" stop-color="#E5E5E5"/>
<stop offset="1" stop-color="#7D7E80"/>
</linearGradient>
<linearGradient id="paint7_linear_405_36096" x1="-7.79398" y1="464.992" x2="918.604" y2="464.992" gradientUnits="userSpaceOnUse">
<stop stop-color="#87888A"/>
<stop offset="0.4974" stop-color="#E5E5E5"/>
<stop offset="1" stop-color="#7D7E80"/>
</linearGradient>
<linearGradient id="paint8_linear_405_36096" x1="-7.7932" y1="479.498" x2="918.619" y2="479.498" gradientUnits="userSpaceOnUse">
<stop stop-color="#87888A"/>
<stop offset="0.4974" stop-color="#E5E5E5"/>
<stop offset="1" stop-color="#7D7E80"/>
</linearGradient>
<linearGradient id="paint9_linear_405_36096" x1="-7.79268" y1="494.818" x2="918.633" y2="494.818" gradientUnits="userSpaceOnUse">
<stop stop-color="#87888A"/>
<stop offset="0.4974" stop-color="#E5E5E5"/>
<stop offset="1" stop-color="#7D7E80"/>
</linearGradient>
<linearGradient id="paint10_linear_405_36096" x1="-7.79191" y1="510.873" x2="918.646" y2="510.873" gradientUnits="userSpaceOnUse">
<stop stop-color="#87888A"/>
<stop offset="0.4974" stop-color="#E5E5E5"/>
<stop offset="1" stop-color="#7D7E80"/>
</linearGradient>
<linearGradient id="paint11_linear_405_36096" x1="-7.79113" y1="527.607" x2="918.659" y2="527.607" gradientUnits="userSpaceOnUse">
<stop stop-color="#87888A"/>
<stop offset="0.4974" stop-color="#E5E5E5"/>
<stop offset="1" stop-color="#7D7E80"/>
</linearGradient>
<linearGradient id="paint12_linear_405_36096" x1="-7.79035" y1="544.956" x2="918.671" y2="544.956" gradientUnits="userSpaceOnUse">
<stop stop-color="#87888A"/>
<stop offset="0.4974" stop-color="#E5E5E5"/>
<stop offset="1" stop-color="#7D7E80"/>
</linearGradient>
<linearGradient id="paint13_linear_405_36096" x1="-7.78984" y1="562.873" x2="918.682" y2="562.873" gradientUnits="userSpaceOnUse">
<stop stop-color="#87888A"/>
<stop offset="0.4974" stop-color="#E5E5E5"/>
<stop offset="1" stop-color="#7D7E80"/>
</linearGradient>
<linearGradient id="paint14_linear_405_36096" x1="-7.78906" y1="581.31" x2="918.693" y2="581.31" gradientUnits="userSpaceOnUse">
<stop stop-color="#87888A"/>
<stop offset="0.4974" stop-color="#E5E5E5"/>
<stop offset="1" stop-color="#7D7E80"/>
</linearGradient>
<linearGradient id="paint15_linear_405_36096" x1="-7.78828" y1="600.217" x2="918.703" y2="600.217" gradientUnits="userSpaceOnUse">
<stop stop-color="#87888A"/>
<stop offset="0.4974" stop-color="#E5E5E5"/>
<stop offset="1" stop-color="#7D7E80"/>
</linearGradient>
<linearGradient id="paint16_linear_405_36096" x1="-7.78725" y1="619.389" x2="918.712" y2="619.389" gradientUnits="userSpaceOnUse">
<stop stop-color="#87888A"/>
<stop offset="0.4974" stop-color="#E5E5E5"/>
<stop offset="1" stop-color="#7D7E80"/>
</linearGradient>
<linearGradient id="paint17_linear_405_36096" x1="-7.78647" y1="627.062" x2="918.721" y2="627.062" gradientUnits="userSpaceOnUse">
<stop stop-color="#87888A"/>
<stop offset="0.4974" stop-color="#E5E5E5"/>
<stop offset="1" stop-color="#7D7E80"/>
</linearGradient>
<linearGradient id="paint18_linear_405_36096" x1="-7.7857" y1="635.104" x2="918.729" y2="635.104" gradientUnits="userSpaceOnUse">
<stop stop-color="#87888A"/>
<stop offset="0.4974" stop-color="#E5E5E5"/>
<stop offset="1" stop-color="#7D7E80"/>
</linearGradient>
<linearGradient id="paint19_linear_405_36096" x1="1190.73" y1="319.386" x2="1933.21" y2="319.386" gradientUnits="userSpaceOnUse">
<stop stop-color="#87888A"/>
<stop offset="0.4974" stop-color="#E5E5E5"/>
<stop offset="1" stop-color="#7D7E80"/>
</linearGradient>
<linearGradient id="paint20_linear_405_36096" x1="1190.74" y1="330.146" x2="1933.2" y2="330.146" gradientUnits="userSpaceOnUse">
<stop stop-color="#87888A"/>
<stop offset="0.4974" stop-color="#E5E5E5"/>
<stop offset="1" stop-color="#7D7E80"/>
</linearGradient>
<linearGradient id="paint21_linear_405_36096" x1="1190.75" y1="340.876" x2="1933.19" y2="340.876" gradientUnits="userSpaceOnUse">
<stop stop-color="#87888A"/>
<stop offset="0.4974" stop-color="#E5E5E5"/>
<stop offset="1" stop-color="#7D7E80"/>
</linearGradient>
<linearGradient id="paint22_linear_405_36096" x1="1190.76" y1="351.569" x2="1933.17" y2="351.569" gradientUnits="userSpaceOnUse">
<stop stop-color="#87888A"/>
<stop offset="0.4974" stop-color="#E5E5E5"/>
<stop offset="1" stop-color="#7D7E80"/>
</linearGradient>
<linearGradient id="paint23_linear_405_36096" x1="1190.78" y1="362.2" x2="1933.15" y2="362.2" gradientUnits="userSpaceOnUse">
<stop stop-color="#87888A"/>
<stop offset="0.4974" stop-color="#E5E5E5"/>
<stop offset="1" stop-color="#7D7E80"/>
</linearGradient>
<linearGradient id="paint24_linear_405_36096" x1="1190.8" y1="372.723" x2="1933.14" y2="372.723" gradientUnits="userSpaceOnUse">
<stop stop-color="#87888A"/>
<stop offset="0.4974" stop-color="#E5E5E5"/>
<stop offset="1" stop-color="#7D7E80"/>
</linearGradient>
<linearGradient id="paint25_linear_405_36096" x1="1190.82" y1="383.037" x2="1933.12" y2="383.037" gradientUnits="userSpaceOnUse">
<stop stop-color="#87888A"/>
<stop offset="0.4974" stop-color="#E5E5E5"/>
<stop offset="1" stop-color="#7D7E80"/>
</linearGradient>
<linearGradient id="paint26_linear_405_36096" x1="1190.85" y1="392.76" x2="1933.1" y2="392.76" gradientUnits="userSpaceOnUse">
<stop stop-color="#87888A"/>
<stop offset="0.4974" stop-color="#E5E5E5"/>
<stop offset="1" stop-color="#7D7E80"/>
</linearGradient>
<linearGradient id="paint27_linear_405_36096" x1="1190.89" y1="400.515" x2="1933.08" y2="400.515" gradientUnits="userSpaceOnUse">
<stop stop-color="#87888A"/>
<stop offset="0.4974" stop-color="#E5E5E5"/>
<stop offset="1" stop-color="#7D7E80"/>
</linearGradient>
<linearGradient id="paint28_linear_405_36096" x1="1190.92" y1="407.057" x2="1933.11" y2="407.057" gradientUnits="userSpaceOnUse">
<stop stop-color="#87888A"/>
<stop offset="0.4974" stop-color="#E5E5E5"/>
<stop offset="1" stop-color="#7D7E80"/>
</linearGradient>
<linearGradient id="paint29_linear_405_36096" x1="1190.97" y1="413.593" x2="1933.13" y2="413.593" gradientUnits="userSpaceOnUse">
<stop stop-color="#87888A"/>
<stop offset="0.4974" stop-color="#E5E5E5"/>
<stop offset="1" stop-color="#7D7E80"/>
</linearGradient>
<linearGradient id="paint30_linear_405_36096" x1="1191.01" y1="422.997" x2="1933.16" y2="422.997" gradientUnits="userSpaceOnUse">
<stop stop-color="#87888A"/>
<stop offset="0.4974" stop-color="#E5E5E5"/>
<stop offset="1" stop-color="#7D7E80"/>
</linearGradient>
<linearGradient id="paint31_linear_405_36096" x1="1190.98" y1="439.408" x2="1933.18" y2="439.408" gradientUnits="userSpaceOnUse">
<stop stop-color="#87888A"/>
<stop offset="0.4974" stop-color="#E5E5E5"/>
<stop offset="1" stop-color="#7D7E80"/>
</linearGradient>
<linearGradient id="paint32_linear_405_36096" x1="1190.94" y1="456.285" x2="1933.21" y2="456.285" gradientUnits="userSpaceOnUse">
<stop stop-color="#87888A"/>
<stop offset="0.4974" stop-color="#E5E5E5"/>
<stop offset="1" stop-color="#7D7E80"/>
</linearGradient>
<linearGradient id="paint33_linear_405_36096" x1="1190.91" y1="473.266" x2="1933.23" y2="473.266" gradientUnits="userSpaceOnUse">
<stop stop-color="#87888A"/>
<stop offset="0.4974" stop-color="#E5E5E5"/>
<stop offset="1" stop-color="#7D7E80"/>
</linearGradient>
<linearGradient id="paint34_linear_405_36096" x1="1190.88" y1="483.906" x2="1933.25" y2="483.906" gradientUnits="userSpaceOnUse">
<stop stop-color="#87888A"/>
<stop offset="0.4974" stop-color="#E5E5E5"/>
<stop offset="1" stop-color="#7D7E80"/>
</linearGradient>
<linearGradient id="paint35_linear_405_36096" x1="1190.85" y1="494.605" x2="1933.27" y2="494.605" gradientUnits="userSpaceOnUse">
<stop stop-color="#87888A"/>
<stop offset="0.4974" stop-color="#E5E5E5"/>
<stop offset="1" stop-color="#7D7E80"/>
</linearGradient>
<linearGradient id="paint36_linear_405_36096" x1="-7.93086" y1="482.136" x2="1933.42" y2="482.136" gradientUnits="userSpaceOnUse">
<stop stop-color="#87888A"/>
<stop offset="0.4974" stop-color="#E5E5E5"/>
<stop offset="1" stop-color="#7D7E80"/>
</linearGradient>
<linearGradient id="paint37_linear_405_36096" x1="-7.97278" y1="484.127" x2="1933.42" y2="484.127" gradientUnits="userSpaceOnUse">
<stop stop-color="#87888A"/>
<stop offset="0.4974" stop-color="#E5E5E5"/>
<stop offset="1" stop-color="#7D7E80"/>
</linearGradient>
<linearGradient id="paint38_linear_405_36096" x1="-8.00409" y1="485.182" x2="1933.42" y2="485.182" gradientUnits="userSpaceOnUse">
<stop stop-color="#87888A"/>
<stop offset="0.4974" stop-color="#E5E5E5"/>
<stop offset="1" stop-color="#7D7E80"/>
</linearGradient>
<linearGradient id="paint39_linear_405_36096" x1="-8.02971" y1="485.129" x2="1933.42" y2="485.129" gradientUnits="userSpaceOnUse">
<stop stop-color="#87888A"/>
<stop offset="0.4974" stop-color="#E5E5E5"/>
<stop offset="1" stop-color="#7D7E80"/>
</linearGradient>
<linearGradient id="paint40_linear_405_36096" x1="-8.05067" y1="484.381" x2="1933.42" y2="484.381" gradientUnits="userSpaceOnUse">
<stop stop-color="#87888A"/>
<stop offset="0.4974" stop-color="#E5E5E5"/>
<stop offset="1" stop-color="#7D7E80"/>
</linearGradient>
<linearGradient id="paint41_linear_405_36096" x1="-8.06774" y1="483.21" x2="1933.42" y2="483.21" gradientUnits="userSpaceOnUse">
<stop stop-color="#87888A"/>
<stop offset="0.4974" stop-color="#E5E5E5"/>
<stop offset="1" stop-color="#7D7E80"/>
</linearGradient>
<linearGradient id="paint42_linear_405_36096" x1="-8.08198" y1="481.957" x2="1933.42" y2="481.957" gradientUnits="userSpaceOnUse">
<stop stop-color="#87888A"/>
<stop offset="0.4974" stop-color="#E5E5E5"/>
<stop offset="1" stop-color="#7D7E80"/>
</linearGradient>
<linearGradient id="paint43_linear_405_36096" x1="-8.09388" y1="481.533" x2="1933.42" y2="481.533" gradientUnits="userSpaceOnUse">
<stop stop-color="#87888A"/>
<stop offset="0.4974" stop-color="#E5E5E5"/>
<stop offset="1" stop-color="#7D7E80"/>
</linearGradient>
<linearGradient id="paint44_linear_405_36096" x1="-8.10397" y1="483.808" x2="1933.42" y2="483.808" gradientUnits="userSpaceOnUse">
<stop stop-color="#87888A"/>
<stop offset="0.4974" stop-color="#E5E5E5"/>
<stop offset="1" stop-color="#7D7E80"/>
</linearGradient>
<linearGradient id="paint45_linear_405_36096" x1="-8.11251" y1="485.725" x2="1933.42" y2="485.725" gradientUnits="userSpaceOnUse">
<stop stop-color="#87888A"/>
<stop offset="0.4974" stop-color="#E5E5E5"/>
<stop offset="1" stop-color="#7D7E80"/>
</linearGradient>
<linearGradient id="paint46_linear_405_36096" x1="-8.12001" y1="487.339" x2="1933.42" y2="487.339" gradientUnits="userSpaceOnUse">
<stop stop-color="#87888A"/>
<stop offset="0.4974" stop-color="#E5E5E5"/>
<stop offset="1" stop-color="#7D7E80"/>
</linearGradient>
<linearGradient id="paint47_linear_405_36096" x1="-8.12648" y1="488.677" x2="1933.42" y2="488.677" gradientUnits="userSpaceOnUse">
<stop stop-color="#87888A"/>
<stop offset="0.4974" stop-color="#E5E5E5"/>
<stop offset="1" stop-color="#7D7E80"/>
</linearGradient>
<linearGradient id="paint48_linear_405_36096" x1="-8.13243" y1="489.787" x2="1933.42" y2="489.787" gradientUnits="userSpaceOnUse">
<stop stop-color="#87888A"/>
<stop offset="0.4974" stop-color="#E5E5E5"/>
<stop offset="1" stop-color="#7D7E80"/>
</linearGradient>
<linearGradient id="paint49_linear_405_36096" x1="-8.13735" y1="490.706" x2="1933.42" y2="490.706" gradientUnits="userSpaceOnUse">
<stop stop-color="#87888A"/>
<stop offset="0.4974" stop-color="#E5E5E5"/>
<stop offset="1" stop-color="#7D7E80"/>
</linearGradient>
<linearGradient id="paint50_linear_405_36096" x1="-8.14201" y1="491.429" x2="1933.42" y2="491.429" gradientUnits="userSpaceOnUse">
<stop stop-color="#87888A"/>
<stop offset="0.4974" stop-color="#E5E5E5"/>
<stop offset="1" stop-color="#7D7E80"/>
</linearGradient>
<linearGradient id="paint51_linear_405_36096" x1="-8.14615" y1="494.702" x2="1933.42" y2="494.702" gradientUnits="userSpaceOnUse">
<stop stop-color="#87888A"/>
<stop offset="0.4974" stop-color="#E5E5E5"/>
<stop offset="1" stop-color="#7D7E80"/>
</linearGradient>
<linearGradient id="paint52_linear_405_36096" x1="-8.14977" y1="498.783" x2="1933.48" y2="498.783" gradientUnits="userSpaceOnUse">
<stop stop-color="#87888A"/>
<stop offset="0.4974" stop-color="#E5E5E5"/>
<stop offset="1" stop-color="#7D7E80"/>
</linearGradient>
<linearGradient id="paint53_linear_405_36096" x1="-7.77586" y1="486.288" x2="1933.25" y2="486.288" gradientUnits="userSpaceOnUse">
<stop stop-color="#87888A"/>
<stop offset="0.4974" stop-color="#E5E5E5"/>
<stop offset="1" stop-color="#7D7E80"/>
</linearGradient>
<linearGradient id="paint54_linear_405_36096" x1="-7.79682" y1="488.282" x2="1933.25" y2="488.282" gradientUnits="userSpaceOnUse">
<stop stop-color="#87888A"/>
<stop offset="0.4974" stop-color="#E5E5E5"/>
<stop offset="1" stop-color="#7D7E80"/>
</linearGradient>
<linearGradient id="paint55_linear_405_36096" x1="-7.81235" y1="489.333" x2="1933.25" y2="489.333" gradientUnits="userSpaceOnUse">
<stop stop-color="#87888A"/>
<stop offset="0.4974" stop-color="#E5E5E5"/>
<stop offset="1" stop-color="#7D7E80"/>
</linearGradient>
<linearGradient id="paint56_linear_405_36096" x1="-7.82529" y1="489.281" x2="1933.25" y2="489.281" gradientUnits="userSpaceOnUse">
<stop stop-color="#87888A"/>
<stop offset="0.4974" stop-color="#E5E5E5"/>
<stop offset="1" stop-color="#7D7E80"/>
</linearGradient>
<linearGradient id="paint57_linear_405_36096" x1="-7.83564" y1="488.532" x2="1933.25" y2="488.532" gradientUnits="userSpaceOnUse">
<stop stop-color="#87888A"/>
<stop offset="0.4974" stop-color="#E5E5E5"/>
<stop offset="1" stop-color="#7D7E80"/>
</linearGradient>
<linearGradient id="paint58_linear_405_36096" x1="-7.84418" y1="487.361" x2="1933.25" y2="487.361" gradientUnits="userSpaceOnUse">
<stop stop-color="#87888A"/>
<stop offset="0.4974" stop-color="#E5E5E5"/>
<stop offset="1" stop-color="#7D7E80"/>
</linearGradient>
<linearGradient id="paint59_linear_405_36096" x1="-7.85142" y1="486.109" x2="1933.25" y2="486.109" gradientUnits="userSpaceOnUse">
<stop stop-color="#87888A"/>
<stop offset="0.4974" stop-color="#E5E5E5"/>
<stop offset="1" stop-color="#7D7E80"/>
</linearGradient>
<linearGradient id="paint60_linear_405_36096" x1="-7.85737" y1="485.684" x2="1933.25" y2="485.684" gradientUnits="userSpaceOnUse">
<stop stop-color="#87888A"/>
<stop offset="0.4974" stop-color="#E5E5E5"/>
<stop offset="1" stop-color="#7D7E80"/>
</linearGradient>
<linearGradient id="paint61_linear_405_36096" x1="-7.86229" y1="487.959" x2="1933.25" y2="487.959" gradientUnits="userSpaceOnUse">
<stop stop-color="#87888A"/>
<stop offset="0.4974" stop-color="#E5E5E5"/>
<stop offset="1" stop-color="#7D7E80"/>
</linearGradient>
<linearGradient id="paint62_linear_405_36096" x1="-7.86669" y1="489.878" x2="1933.25" y2="489.878" gradientUnits="userSpaceOnUse">
<stop stop-color="#87888A"/>
<stop offset="0.4974" stop-color="#E5E5E5"/>
<stop offset="1" stop-color="#7D7E80"/>
</linearGradient>
<linearGradient id="paint63_linear_405_36096" x1="-7.87057" y1="491.49" x2="1933.25" y2="491.49" gradientUnits="userSpaceOnUse">
<stop stop-color="#87888A"/>
<stop offset="0.4974" stop-color="#E5E5E5"/>
<stop offset="1" stop-color="#7D7E80"/>
</linearGradient>
<linearGradient id="paint64_linear_405_36096" x1="-7.87367" y1="492.828" x2="1933.25" y2="492.828" gradientUnits="userSpaceOnUse">
<stop stop-color="#87888A"/>
<stop offset="0.4974" stop-color="#E5E5E5"/>
<stop offset="1" stop-color="#7D7E80"/>
</linearGradient>
<linearGradient id="paint65_linear_405_36096" x1="-7.87652" y1="493.939" x2="1933.25" y2="493.939" gradientUnits="userSpaceOnUse">
<stop stop-color="#87888A"/>
<stop offset="0.4974" stop-color="#E5E5E5"/>
<stop offset="1" stop-color="#7D7E80"/>
</linearGradient>
<linearGradient id="paint66_linear_405_36096" x1="-7.87911" y1="494.857" x2="1933.25" y2="494.857" gradientUnits="userSpaceOnUse">
<stop stop-color="#87888A"/>
<stop offset="0.4974" stop-color="#E5E5E5"/>
<stop offset="1" stop-color="#7D7E80"/>
</linearGradient>
<linearGradient id="paint67_linear_405_36096" x1="-7.88144" y1="495.58" x2="1933.25" y2="495.58" gradientUnits="userSpaceOnUse">
<stop stop-color="#87888A"/>
<stop offset="0.4974" stop-color="#E5E5E5"/>
<stop offset="1" stop-color="#7D7E80"/>
</linearGradient>
<linearGradient id="paint68_linear_405_36096" x1="-7.88351" y1="498.909" x2="1933.25" y2="498.909" gradientUnits="userSpaceOnUse">
<stop stop-color="#87888A"/>
<stop offset="0.4974" stop-color="#E5E5E5"/>
<stop offset="1" stop-color="#7D7E80"/>
</linearGradient>
<linearGradient id="paint69_linear_405_36096" x1="-7.88532" y1="502.994" x2="1933.28" y2="502.994" gradientUnits="userSpaceOnUse">
<stop stop-color="#87888A"/>
<stop offset="0.4974" stop-color="#E5E5E5"/>
<stop offset="1" stop-color="#7D7E80"/>
</linearGradient>
</defs>
</svg>
