<svg xmlns="http://www.w3.org/2000/svg" width="174" height="43" fill="none" viewBox="0 0 174 43"><path fill="#fff" d="M56.1022 19.7915H61.6203L59.5492 13.078C59.5029 12.9575 59.4149 12.6239 59.2852 12.0772C59.1276 11.4378 58.984 10.8587 58.8543 10.3398C58.7245 10.8123 58.6133 11.2896 58.5207 11.7714C58.3724 12.2347 58.2473 12.6703 58.1454 13.078L56.1022 19.7915ZM48.3323 27.3945L55.3516 7.04557H62.3014L69.3345 27.3945H63.8164L62.7878 23.7528H54.9068L53.8504 27.3945H48.3323ZM71.4334 27.3945V7.04557H77.0349V27.3945H71.4334ZM91.1986 19.9027V15.6355H102.096C102.096 15.8301 102.105 15.983 102.124 16.0942V16.8309C102.124 20.3428 101.206 23.0579 99.3715 24.976C97.5182 26.9127 94.9097 27.881 91.546 27.881C89.943 27.881 88.4789 27.6355 87.1538 27.1443C85.875 26.6532 84.726 25.8934 83.7067 24.8648C82.7337 23.8733 81.9878 22.7243 81.4689 21.4177C81.1909 20.7227 80.987 20.0278 80.8573 19.3328C80.7275 18.6285 80.6627 17.9289 80.6627 17.2339C80.6627 15.7328 80.9221 14.3382 81.4411 13.0502C81.96 11.7992 82.7337 10.6502 83.7623 9.60309C84.7445 8.62085 85.9121 7.87027 87.265 7.35136C88.5993 6.84171 90.0264 6.58688 91.546 6.58688C93.529 6.58688 95.2897 6.98534 96.8279 7.78224C97.319 8.02317 97.8008 8.32433 98.2734 8.68572C98.7553 9.03784 99.1954 9.43166 99.5939 9.86718C100.002 10.3027 100.372 10.7753 100.706 11.2849L95.8966 13.5923C95.3221 12.8046 94.6781 12.2162 93.9646 11.827C93.2325 11.4471 92.4263 11.2571 91.546 11.2571C89.8781 11.2571 88.5762 11.8085 87.6403 12.9112C86.6951 14.0046 86.2225 15.5197 86.2225 17.4563C86.2225 19.4023 86.6951 20.9312 87.6403 22.0432C88.5762 23.1459 89.8781 23.6972 91.546 23.6972C92.9638 23.6972 94.136 23.3451 95.0626 22.6409C96.0263 21.9459 96.5777 21.0332 96.7167 19.9027H91.1986ZM105.515 27.3945V7.04557H111.311C112.432 7.04557 113.378 7.06873 114.147 7.11506C114.925 7.1614 115.564 7.24016 116.065 7.35136C116.927 7.55522 117.696 7.90734 118.372 8.40772C119.114 8.96371 119.674 9.67722 120.054 10.5483C120.453 11.3822 120.652 12.3274 120.652 13.3838C120.652 14.9498 120.263 16.2332 119.484 17.2339C118.724 18.2347 117.598 18.888 116.107 19.1938L121.653 27.3945H115.384L110.714 19.4301V27.3945H105.515ZM110.714 16.6641H111.742C112.956 16.6641 113.832 16.4648 114.369 16.0664C114.916 15.6216 115.189 14.9776 115.189 14.1343C115.189 13.115 114.934 12.3923 114.425 11.966C113.906 11.5305 113.039 11.3127 111.826 11.3127H110.714V16.6641ZM150.55 27.3945V7.04557H155.901L163.587 17.5119C163.782 17.7992 164.028 18.2301 164.324 18.8046C164.704 19.5459 165.075 20.3104 165.436 21.098C165.297 20.0324 165.218 19.2865 165.2 18.8602C165.144 18.193 165.116 17.6046 165.116 17.095V7.04557H170.44V27.3945H165.116L157.43 16.8865C157.319 16.7382 157.073 16.3027 156.693 15.5799C156.36 14.9869 155.989 14.2363 155.581 13.3282C155.674 14.0509 155.762 14.8015 155.845 15.5799C155.883 16.4509 155.901 17.0394 155.901 17.3451V27.3945H150.55Z"/><path fill="url(#paint0_linear_39_11)" fill-rule="evenodd" d="M135.63 20.2324C137.699 20.2324 139.377 18.5549 139.377 16.4857C139.377 14.4165 137.699 12.739 135.63 12.739C133.561 12.739 131.884 14.4165 131.884 16.4857C131.884 18.5549 133.561 20.2324 135.63 20.2324ZM135.63 27.2761C141.59 27.2761 146.421 22.4451 146.421 16.4857C146.421 10.5263 141.59 5.69531 135.63 5.69531C129.671 5.69531 124.84 10.5263 124.84 16.4857C124.84 22.4451 129.671 27.2761 135.63 27.2761Z" clip-rule="evenodd"/><path fill="#2F8BBF" d="M0.00635412 22.4563C0.00635412 19.6988 0.0292572 16.9413 0.00635412 14.1839C0.00635412 13.263 0.166676 12.9543 1.15151 13.3676C5.63203 15.2484 10.1279 17.091 14.6389 18.8953C15.4023 19.204 15.7484 19.5688 15.7357 20.4565C15.6771 23.9333 15.6899 27.4127 15.7357 30.8921C15.7357 31.767 15.4812 32.0782 14.5804 32.0706C10.1372 32.0349 5.69311 32.0349 1.24821 32.0706C0.324454 32.0706 -0.0241572 31.8155 0.00129064 30.8538C0.0420072 28.0555 0.00635412 25.2546 0.00635412 22.4563Z"/><path fill="#4C51C3" d="M35.7899 33.3595C35.7899 36.1711 35.7719 38.9827 35.7899 41.7789C35.7899 42.6607 35.5873 42.9189 34.6821 42.5457C30.0804 40.6355 25.465 38.756 20.8359 36.9072C20.259 36.6746 20.0795 36.3346 20.0821 35.7544C20.0949 32.1403 20.1051 28.5236 20.0821 24.9094C20.0821 24.0506 20.4308 23.8231 21.2256 23.8282C25.6641 23.8512 30.1 23.8665 34.536 23.8282C35.6026 23.8282 35.818 24.2704 35.818 25.2033C35.7642 27.9255 35.7899 30.6476 35.7899 33.3595Z"/><path fill="#12C8BB" d="M28.0012 9.64349C28.0012 12.3641 27.9755 15.0873 28.0139 17.8181C28.0139 18.7659 27.909 19.1465 26.8239 18.6918C22.3145 16.7988 17.7794 14.9672 13.2393 13.1484C12.5509 12.8699 12.2822 12.5123 12.2898 11.751C12.3308 8.26403 12.3487 4.77704 12.2898 1.27728C12.2694 0.227356 12.6532 0 13.6181 0C18.0081 0.037467 22.3964 0.037467 26.7829 0C27.7273 0 28.0446 0.255451 28.0241 1.22363C27.9627 4.02344 27.9986 6.83347 28.0012 9.64349Z"/><defs><linearGradient id="paint0_linear_39_11" x1="135.63" x2="135.63" y1="5.695" y2="27.276" gradientUnits="userSpaceOnUse"><stop stop-color="#0AD8BA"/><stop offset="1" stop-color="#553EC5"/></linearGradient></defs></svg>