<svg width="174" height="43" viewBox="0 0 174 43" fill="none" xmlns="http://www.w3.org/2000/svg">
<path d="M56.1041 19.7915H61.6222L59.5512 13.078C59.5049 12.9575 59.4168 12.6239 59.2871 12.0772C59.1296 11.4378 58.9859 10.8587 58.8562 10.3398C58.7265 10.8123 58.6153 11.2896 58.5226 11.7714C58.3744 12.2347 58.2493 12.6703 58.1473 13.078L56.1041 19.7915ZM48.3342 27.3945L55.3535 7.04557H62.3033L69.3365 27.3945H63.8184L62.7898 23.7528H54.9087L53.8524 27.3945H48.3342ZM71.4353 27.3945V7.04557H77.0369V27.3945H71.4353ZM91.2005 19.9027V15.6355H102.098C102.098 15.8301 102.107 15.983 102.126 16.0942V16.8309C102.126 20.3428 101.208 23.0579 99.3735 24.976C97.5202 26.9127 94.9117 27.881 91.548 27.881C89.9449 27.881 88.4808 27.6355 87.1557 27.1443C85.877 26.6532 84.7279 25.8934 83.7086 24.8648C82.7357 23.8733 81.9897 22.7243 81.4708 21.4177C81.1928 20.7227 80.989 20.0278 80.8592 19.3328C80.7295 18.6285 80.6646 17.9289 80.6646 17.2339C80.6646 15.7328 80.9241 14.3382 81.443 13.0502C81.9619 11.7992 82.7357 10.6502 83.7642 9.60309C84.7465 8.62085 85.914 7.87027 87.2669 7.35136C88.6013 6.84171 90.0283 6.58688 91.548 6.58688C93.531 6.58688 95.2916 6.98534 96.8298 7.78224C97.321 8.02317 97.8028 8.32433 98.2754 8.68572C98.7572 9.03784 99.1974 9.43166 99.5958 9.86718C100.004 10.3027 100.374 10.7753 100.708 11.2849L95.8986 13.5923C95.324 12.8046 94.68 12.2162 93.9665 11.827C93.2345 11.4471 92.4283 11.2571 91.548 11.2571C89.88 11.2571 88.5781 11.8085 87.6422 12.9112C86.697 14.0046 86.2245 15.5197 86.2245 17.4563C86.2245 19.4023 86.697 20.9312 87.6422 22.0432C88.5781 23.1459 89.88 23.6972 91.548 23.6972C92.9658 23.6972 94.1379 23.3451 95.0646 22.6409C96.0283 21.9459 96.5796 21.0332 96.7186 19.9027H91.2005ZM105.517 27.3945V7.04557H111.313C112.434 7.04557 113.38 7.06873 114.149 7.11506C114.927 7.1614 115.566 7.24016 116.067 7.35136C116.929 7.55522 117.698 7.90734 118.374 8.40772C119.115 8.96371 119.676 9.67722 120.056 10.5483C120.454 11.3822 120.654 12.3274 120.654 13.3838C120.654 14.9498 120.264 16.2332 119.486 17.2339C118.726 18.2347 117.6 18.888 116.109 19.1938L121.654 27.3945H115.386L110.715 19.4301V27.3945H105.517ZM110.715 16.6641H111.744C112.958 16.6641 113.834 16.4648 114.371 16.0664C114.918 15.6216 115.191 14.9776 115.191 14.1343C115.191 13.115 114.936 12.3923 114.427 11.966C113.908 11.5305 113.041 11.3127 111.827 11.3127H110.715V16.6641ZM150.552 27.3945V7.04557H155.903L163.589 17.5119C163.784 17.7992 164.03 18.2301 164.326 18.8046C164.706 19.5459 165.077 20.3104 165.438 21.098C165.299 20.0324 165.22 19.2865 165.202 18.8602C165.146 18.193 165.118 17.6046 165.118 17.095V7.04557H170.442V27.3945H165.118L157.432 16.8865C157.321 16.7382 157.075 16.3027 156.695 15.5799C156.362 14.9869 155.991 14.2363 155.583 13.3282C155.676 14.0509 155.764 14.8015 155.847 15.5799C155.884 16.4509 155.903 17.0394 155.903 17.3451V27.3945H150.552Z" fill="#302F2F"/>
<path fill-rule="evenodd" clip-rule="evenodd" d="M135.63 20.2324C137.699 20.2324 139.377 18.5549 139.377 16.4857C139.377 14.4165 137.699 12.739 135.63 12.739C133.561 12.739 131.884 14.4165 131.884 16.4857C131.884 18.5549 133.561 20.2324 135.63 20.2324ZM135.63 27.2761C141.59 27.2761 146.421 22.4451 146.421 16.4857C146.421 10.5263 141.59 5.69531 135.63 5.69531C129.671 5.69531 124.84 10.5263 124.84 16.4857C124.84 22.4451 129.671 27.2761 135.63 27.2761Z" fill="url(#paint0_linear_152_336)"/>
<path d="M0.00635412 22.4563C0.00635412 19.6988 0.0292572 16.9413 0.00635412 14.1839C0.00635412 13.263 0.166676 12.9543 1.15151 13.3676C5.63203 15.2484 10.1279 17.091 14.6389 18.8953C15.4023 19.204 15.7484 19.5688 15.7357 20.4565C15.6771 23.9333 15.6899 27.4127 15.7357 30.8921C15.7357 31.767 15.4812 32.0782 14.5804 32.0706C10.1372 32.0349 5.69311 32.0349 1.24821 32.0706C0.324454 32.0706 -0.0241572 31.8155 0.00129064 30.8538C0.0420072 28.0555 0.00635412 25.2546 0.00635412 22.4563Z" fill="#2F8BBF"/>
<path d="M35.7899 33.3595C35.7899 36.1711 35.7719 38.9827 35.7899 41.7789C35.7899 42.6607 35.5873 42.9189 34.6821 42.5457C30.0804 40.6355 25.465 38.756 20.8359 36.9072C20.259 36.6746 20.0795 36.3346 20.0821 35.7544C20.0949 32.1403 20.1051 28.5236 20.0821 24.9094C20.0821 24.0506 20.4308 23.8231 21.2256 23.8282C25.6641 23.8512 30.1 23.8665 34.536 23.8282C35.6026 23.8282 35.818 24.2704 35.818 25.2033C35.7642 27.9255 35.7899 30.6476 35.7899 33.3595Z" fill="#4C51C3"/>
<path d="M28.0012 9.64349C28.0012 12.3641 27.9755 15.0873 28.0139 17.8181C28.0139 18.7659 27.909 19.1465 26.8239 18.6918C22.3145 16.7988 17.7794 14.9672 13.2393 13.1484C12.5509 12.8699 12.2822 12.5123 12.2898 11.751C12.3308 8.26403 12.3487 4.77704 12.2898 1.27728C12.2694 0.227356 12.6532 0 13.6181 0C18.0081 0.037467 22.3964 0.037467 26.7829 0C27.7273 0 28.0446 0.255451 28.0241 1.22363C27.9627 4.02344 27.9986 6.83347 28.0012 9.64349Z" fill="#12C8BB"/>
<defs>
<linearGradient id="paint0_linear_152_336" x1="135.63" y1="5.69531" x2="135.63" y2="27.2761" gradientUnits="userSpaceOnUse">
<stop stop-color="#0AD8BA"/>
<stop offset="1" stop-color="#553EC5"/>
</linearGradient>
</defs>
</svg>
